<svg xmlns="http://www.w3.org/2000/svg" version="1.1" xmlns:xlink="http://www.w3.org/1999/xlink" xmlns:svgjs="http://svgjs.dev/svgjs" width="260" height="600" viewBox="0 0 800 800" opacity="0.38"><g stroke-width="1.5" stroke="hsl(0, 0%, 0%)" fill="none"><path d="M1519.2620205001235 332.98782826233196C1622.5423163578384 874.2555923858199 1516.2263685006033 1313.6957090856367 1296.0624653934915 1604.9196171948474C1075.8985622863797 1896.1435253040577 758.8477389652783 1830.2837567824622 462.4752855859879 1730.8625871865383C166.10283220669726 1631.4414175906145 119.41314322196013 1542.459707263295 -126.5253108271038 1127.6980031344083C-372.4637648761676 712.936299005521 -911.121451371091 181.8530018954434 -718.0292938495153 -259.99359263212C-524.9371363279396 -701.8401871596836 334.2146881202866 -1116.7034466175694 800.3170452764621 -993.1656505978926C1266.419402432638 -869.627854578216 1415.9817246424086 -208.27993586115554 1519.2620205001235 332.98782826233196C1622.5423163578384 874.2555923858199 1516.2263685006033 1313.6957090856367 1296.0624653934915 1604.9196171948474 "></path><path d="M1489.8078877071002 334.75122455035034C1590.3702810422437 861.7751001442725 1486.8521212865144 1289.6510032467263 1272.4820051032739 1573.211124300431C1058.1118889200338 1856.7712453541358 749.4045083179087 1792.6446286357404 460.831330027547 1695.8398056081305C172.25815173718502 1599.0349825805201 126.79713877836184 1512.3948962091827 -112.66925069046329 1108.5479737678984C-352.13564015928864 704.7010513266134 -876.6181243780298 187.5936304562747 -688.6073394228113 -242.6254221100371C-500.5965544675928 -672.8444746763489 335.94601144252215 -1076.7902799379747 789.7825170945878 -956.5034785503947C1243.6190227466532 -836.2166771628147 1389.2454943719567 -192.27265104357184 1489.8078877071002 334.75122455035034C1590.3702810422437 861.7751001442725 1486.8521212865144 1289.6510032467263 1272.4820051032739 1573.211124300431 "></path><path d="M1460.3535718086082 336.514681873525C1558.1980626211803 849.2946689378814 1457.4776909669572 1265.6063584429717 1248.901361707588 1541.502692441171C1040.3250324482187 1817.3990264393701 739.9610945650704 1755.005561524175 459.18719136363734 1660.8170850648785C178.41328816220403 1566.628608605582 134.18095122929526 1482.3301461902265 -98.81337365929153 1089.3980054365447C-331.8076985478783 696.465864682862 -842.1149804904373 193.33432005226223 -659.1855681015761 -225.25719055279797C-476.2561557127149 -643.8487011578582 337.6771516592887 -1036.8770522232237 779.2478058072447 -919.8412454677405C1220.8184599552005 -802.8054387122572 1362.5090809960361 -176.26530519083144 1460.3535718086082 336.514681873525C1558.1980626211803 849.2946689378814 1457.4776909669572 1265.6063584429717 1248.901361707588 1541.502692441171 "></path><path d="M1430.8993779804287 338.27813919669984C1526.0259662704289 836.8142377314907 1428.103382717712 1241.5617136392175 1225.3208403822146 1509.7942605819112C1022.5382980467168 1778.026807524605 730.5178028825446 1717.3664944126094 457.5431747700402 1625.794364521627C184.56854665753553 1534.222234630644 141.56488575054072 1452.2653961712708 -84.95737455780727 1070.2480371051906C-311.4796348661555 688.2306780391107 -807.6117145325325 199.07500964824976 -629.7636747100285 -207.88895899555882C-451.91563488752445 -614.8529276393672 339.408413946368 -996.9638245084727 768.713216590214 -883.1790123850863C1198.01801923406 -769.3942002616998 1335.772789690428 -160.2579593380915 1430.8993779804287 338.27813919669984C1526.0259662704289 836.8142377314907 1428.103382717712 1241.5617136392175 1225.3208403822146 1509.7942605819112 "></path><path d="M1401.44500104678 340.0416575550307C1493.8536868142091 824.3338675602563 1398.7288913629986 1217.517129870619 1201.7401359513724 1478.0858897578073C1004.7513805397459 1738.6546496449955 721.0743280945501 1679.7274883362002 455.8989750709743 1590.7717050135316C190.7236220473983 1501.8159216908625 148.9486371663179 1422.2007071874714 -71.10155856179188 1051.0981298089937C-291.15175428990165 679.9955524305155 -773.1086316800962 204.81576027939354 -600.3419644239495 -190.52066640316332C-427.5752971678028 -585.8570930857202 341.13949312797854 -957.0505357585654 758.1784442677144 -846.5167182672757C1175.2173954074506 -735.982900775986 1309.0363152793507 -144.25055245019507 1401.44500104678 340.0416575550307C1493.8536868142091 824.3338675602563 1398.7288913629986 1217.517129870619 1201.7401359513724 1478.0858897578073 "></path><path d="M1371.9908682537566 341.80511487820513C1461.6816514986144 811.8534363538654 1369.3546441489098 1193.472485066865 1178.1596756611548 1446.3774578985472C986.9647071734 1699.2824307302303 711.6310974471805 1642.0884212246342 454.2550195125334 1555.7489844702795C196.87894157788628 1469.4095477159244 156.33263272271984 1392.1359571685152 -57.24549842515137 1031.9481614776396C-270.8236295730226 671.7603657867642 -738.6053046870351 210.55644987538108 -570.9200099972456 -173.15243484592406C-403.2347153074561 -556.8613195672293 342.8708164502141 -917.1373080438144 747.6439160858401 -809.8544851846215C1152.4170157214667 -702.5716623254285 1282.3000850088993 -128.2432065974549 1371.9908682537566 341.80511487820513C1461.6816514986144 811.8534363538654 1369.3546441489098 1193.472485066865 1178.1596756611548 1446.3774578985472 "></path><path d="M1342.5364913201083 343.56863323653624C1429.5093720423943 799.3730661826312 1339.9801527941963 1169.427901298267 1154.5789712303126 1414.6690870744437C969.1777896664291 1659.910272850621 702.187622659186 1604.449415148225 452.6108198134675 1520.7263249621838C203.03401696774927 1437.0032347761426 163.71638413849678 1362.0712681847158 -43.38968242913586 1012.7982541814426C-250.4957489967685 663.525240178169 -704.1022218345988 216.29720050652486 -541.4982997111666 -155.78414225352867C-378.8943775877344 -527.8654850135822 344.6018956318244 -877.2240192939071 737.1091437633409 -773.1921910668109C1129.6163918948569 -669.1603628397147 1255.563610597822 -112.23579970955859 1342.5364913201083 343.56863323653624C1429.5093720423943 799.3730661826312 1339.9801527941963 1169.427901298267 1154.5789712303126 1414.6690870744437 "></path><path d="M1313.082358527085 345.3321515948671C1397.3373367267995 786.8926960113965 1310.605905580108 1145.3833175296686 1130.9985109400955 1382.9607162503398C951.391116300083 1620.538114971012 692.7443920118162 1566.8104090718157 450.96686425502685 1485.703665454088C209.18933649823703 1404.5969218363607 171.10037969489872 1332.006579200916 -29.533622292495465 993.6483468852448C-230.16762427988965 655.2901145695739 -669.5988948415377 222.03795113766864 -512.0763452844627 -138.41584966113317C-354.55379572738775 -498.8696504599351 346.33321895405993 -837.3107305439999 726.5746155814663 -736.5298969490004C1106.8160122088725 -635.749063354001 1228.8273803273696 -96.22839282166217 1313.082358527085 345.3321515948671C1397.3373367267995 786.8926960113965 1310.605905580108 1145.3833175296686 1130.9985109400955 1382.9607162503398 "></path><path d="M1283.6279815934367 347.095669953198C1365.1650572705798 774.4123258401619 1281.231414225394 1121.3387337610702 1107.417806509253 1351.2523454262364C933.6041987931121 1581.1659570914026 683.3009172238217 1529.1714029954064 449.3226645559607 1450.6810059459926C215.34441188809978 1372.1906088965789 178.48413111067566 1301.9418902171165 -15.677806296479957 974.4984395890476C-209.83974370363558 647.0549889609788 -635.0958119891014 227.77870176881243 -482.65463499838376 -121.04755706873777C-330.2134580076661 -469.873815906288 348.06429813567047 -797.3974417940926 716.0398432589668 -699.86760283119C1084.0153883822634 -602.3377638682873 1202.0909059162932 -80.22098593376586 1283.6279815934367 347.095669953198C1365.1650572705798 774.4123258401619 1281.231414225394 1121.3387337610702 1107.417806509253 1351.2523454262364 "></path><path d="M1254.1737877652567 348.85912727637265C1332.9929609198284 761.9318946337712 1251.857105976149 1097.294088957316 1083.8372851838794 1319.5439135669762C915.81746439161 1541.793738176637 673.8576255412959 1491.532335883841 447.6786479623638 1415.658285402741C221.4996703834313 1339.7842349216407 185.86806563192135 1271.8771401981603 -1.8218071949956993 955.348471257694C-189.51168002191287 638.8198023172274 -600.5925460311964 233.51939136479996 -453.2327416068361 -103.67932551149863C-305.87293718247565 -440.8780423877971 349.79556042274953 -757.4842140793417 705.5052540419363 -663.2053697485358C1061.214947661123 -568.9265254177297 1175.3546146106848 -64.21364008102569 1254.1737877652567 348.85912727637265C1332.9929609198284 761.9318946337712 1251.857105976149 1097.294088957316 1083.8372851838794 1319.5439135669762 "></path><path d="M1224.7194718667645 350.62252356439103C1300.820742498765 749.451402392224 1222.4826756565917 1073.2493831184056 1060.2566417881935 1287.8354206725603C898.0306079197953 1502.4214582267155 664.4142117884576 1453.8932077371187 446.03450929845394 1380.6355038243328C227.6548068084503 1307.3777999115464 193.25187808285455 1241.812329144048 12.034069836176059 936.1984418911841C-169.18373841050266 630.5845546383198 -566.089402143604 239.26001992563124 -423.8109702856009 -86.31115498941563C-281.53253842759773 -411.8823299044625 351.5267006395163 -717.5710473997469 694.970542754593 -626.5431977010377C1038.4143848696697 -535.5153480023286 1148.618201234764 -48.206355263441765 1224.7194718667645 350.62252356439103C1300.820742498765 749.451402392224 1222.4826756565917 1073.2493831184056 1060.2566417881935 1287.8354206725603 "></path><path d="M1195.2652170034287 352.3860419227219C1268.6485851128575 736.9710322209894 1193.1083063721906 1049.2047993498072 1036.6760594276636 1256.1270498484564C880.2438124831369 1463.0493003471056 654.9708590707755 1416.2542016607094 444.3904316697008 1345.612844316237C233.81000426862568 1274.9714869717645 200.6357515689441 1211.747640160248 25.890007902504067 917.0485345949867C-148.85573576393608 622.3494290297247 -531.5861972208554 245.00077055677502 -394.3891379292094 -68.94286239702035C-257.19207863756355 -382.8864953508155 353.25790189143936 -677.6577586498396 684.4358925024062 -589.8809035832272C1015.613883113373 -502.1040485166148 1121.8818488939996 -32.19894837554557 1195.2652170034287 352.3860419227219C1268.6485851128575 736.9710322209894 1193.1083063721906 1049.2047993498072 1036.6760594276636 1256.1270498484564 "></path><path d="M1165.8109926576708 354.1495602810528C1236.4764582445284 724.490662049755 1163.7339676053675 1025.160215581209 1013.0955075847119 1224.4186790243525C862.4570475640567 1423.6771424674962 645.5275368706716 1378.6151955843002 442.7463845585253 1310.5901848081417C239.96523224637917 1242.5651740319831 208.01965557261155 1181.682951176449 39.745976486410086 897.898627298789C-128.52770259979138 614.1143034211295 -497.08296178052854 250.74152118791858 -364.9672750552399 -51.57456980462484C-232.85158832995126 -353.8906607971684 354.9891336609403 -637.7444698999324 673.9012727677973 -553.2186094654166C992.8134118746543 -468.69274903090104 1095.1455270708134 -16.191541487649147 1165.8109926576708 354.1495602810528C1236.4764582445284 724.490662049755 1163.7339676053675 1025.160215581209 1013.0955075847119 1224.4186790243525 "></path><path d="M1136.3567072767569 355.91304812180556C1204.3042703410429 712.0102613609422 1134.3595678033882 1001.1156012950328 989.5148947066043 1192.710277682671C844.6702216098199 1384.3049540703091 636.0841536354114 1340.9761589903128 441.102276412194 1275.5674947824677C246.12039918897642 1210.1588305746232 215.40349854112299 1151.6182316750708 53.601884035159856 878.7486894850135C-108.19973047080305 605.8791472949563 -462.57978737535797 256.48224130148424 -335.54547321642656 -34.20630772980758C-208.5111590574952 -324.8948567610994 356.7203043952852 -597.8312116676032 663.3665919980324 -516.5563458651843C970.0128796007793 -435.28148006276547 1068.409144212471 -0.18416511733084917 1136.3567072767569 355.91304812180556C1204.3042703410429 712.0102613609422 1134.3595678033882 1001.1156012950328 989.5148947066043 1192.710277682671 "></path><path d="M1106.902452413421 357.6765359625583C1172.1321129551354 699.5298606721294 1104.985198518987 977.0709870088565 965.9343123460744 1161.001876340989C826.8834261731618 1344.932765673122 626.6408009177294 1303.337122396325 439.45819878344037 1240.5448047567943C252.27559664915168 1177.7524871172632 222.78737202721243 1121.553512173693 67.45782210148786 859.598751671238C-87.87172782423659 597.643991168783 -428.0765824526093 262.2229614150499 -306.12364086003515 -16.83804565499031C-184.17069926746103 -295.8990527250304 358.45150564720825 -557.9179534352741 652.8319417458454 -479.894082264952C947.2123778444827 -401.87021109462984 1041.6727918717063 15.823211252987221 1106.902452413421 357.6765359625583C1172.1321129551354 699.5298606721294 1104.985198518987 977.0709870088565 965.9343123460744 1161.001876340989 "></path><path d="M1077.448167032507 359.43996276815506C1139.95992505165 687.0493989481606 1075.6107987170078 953.0263116875237 942.3536994679664 1129.2934139641511C809.0966002189252 1305.5605162407783 617.197417682469 1265.6980247671809 437.8140906371091 1205.5220536959644C258.4307635917488 1145.346082624747 230.17121499572374 1091.4887316371587 81.31372965023775 840.4487528223062C-67.54375569524825 589.4087740074535 -393.5734080474387 267.9636204934593 -276.7018390212218 0.5301553846708202C-159.83026999500493 -266.90330972411766 360.18267638155305 -518.0047562381012 642.2972609760805 -443.23187969987583C924.4118455706075 -368.45900316165046 1014.9364090133638 31.83052658814927 1077.448167032507 359.43996276815506C1139.95992505165 687.0493989481606 1075.6107987170078 953.0263116875237 942.3536994679664 1129.2934139641511 "></path><path d="M1047.9938206164368 361.2034200913297C1107.7876761130085 674.5689677417699 1046.2363378798723 928.9816668837693 918.7730255547024 1097.584982104891C791.3097132295322 1266.1882973260128 607.7539734120523 1228.0589576556158 436.1699214556213 1170.4993331527123C264.5858694991898 1112.939708649809 237.5549969290788 1061.423981618203 95.16957616383138 821.2987844909526C-47.21584460141605 581.1735873637022 -359.0702946774244 273.70431008944684 -247.28009821756478 17.898386941910076C-135.48990175770513 -237.9075362056268 361.9137860807416 -478.09152852335023 631.762519171159 -406.56964661722157C901.6112522615765 -335.04776471109295 988.199965119865 47.83787244088944 1047.9938206164368 361.2034200913297C1107.7876761130085 674.5689677417699 1046.2363378798723 928.9816668837693 918.7730255547024 1097.584982104891 "></path><path d="M1018.5395657531008 362.9668468969262C1075.615518727101 662.0885060178007 1016.8619685954711 904.9369915624366 895.1924431941725 1065.8765197280527C773.5229177928738 1226.816047893669 598.3106206943705 1190.4198600264717 434.5258438268679 1135.4765820918822C270.74106695936507 1080.5333041572926 244.93887041516837 1031.3592010816687 109.02551423015939 802.1487856420206C-26.88784195484959 572.9383702023724 -324.5670897546757 279.444969167856 -217.85826586117332 35.26658798157098C-111.14944196767095 -208.91179320471406 363.64498733266464 -438.17833132617733 621.227868918972 -369.9074440521455C878.8107505052797 -301.6365567781136 961.4636127791005 63.84518777605126 1018.5395657531008 362.9668468969262C1075.615518727101 662.0885060178007 1016.8619685954711 904.9369915624366 895.1924431941725 1065.8765197280527 "></path><path d="M989.0853414073431 364.730395772835C1043.443391858772 649.6081663641444 987.4876298286481 880.8924383114165 871.6118913512207 1034.1681794215274C755.7361528737933 1187.443920531638 588.8672984942666 1152.7808844676404 432.88179671569264 1100.4539531013647C276.8962949371187 1048.127021735089 252.32277441883582 1001.2945426154472 122.88148281406541 782.9989088634013C-6.559808790705006 564.7032751113557 -290.0638543143489 285.1857503165779 -188.43640298720373 52.63491109154461C-86.80895166005865 -179.91592813348888 365.3762191021657 -398.265012058692 610.6932491843634 -333.24511941675684C856.0102792665609 -268.22522677482175 934.7272909559142 79.85262518152581 989.0853414073431 364.730395772835C1043.443391858772 649.6081663641444 987.4876298286481 880.8924383114165 871.6118913512207 1034.1681794215274 "></path><path d="M959.6310865440071 366.49388361358785C1011.2712344728645 637.1277656753318 958.1132605442469 856.8478240252402 848.0313089906911 1002.4597780798456C737.9493574371352 1148.0717321344507 579.4239457765843 1115.141847873653 431.23771908693925 1065.431263075691C283.05149239729394 1015.7206782777291 259.7066479049254 971.2298231140694 136.73742088039342 763.848971049626C13.768193855861455 556.4681189851824 -255.56064939160018 290.9264704301436 -159.01457063081233 70.00317316636188C-62.46849187002448 -150.92012409741994 367.1074203540886 -358.3517538263628 600.1585989321763 -296.5828558165245C833.2097775102643 -234.81395780668612 907.9909386151496 95.8600015518441 959.6310865440071 366.49388361358785C1011.2712344728645 637.1277656753318 958.1132605442469 856.8478240252402 848.0313089906911 1002.4597780798456 "></path><path d="M930.1768316806713 368.2573409367625C979.0990770869573 624.6473344689407 928.7388912598458 832.8031792214858 824.4507266301612 970.7513462205854C720.1625620004766 1108.699513219685 569.9805930589023 1077.5027807620875 429.59364145818586 1030.4085425324392C289.2066898574692 983.314304302791 267.0905213910148 941.1650730951133 150.59335894672142 744.6990027182724C34.09619650242803 548.232932341431 -221.0574444688515 296.6671600261311 -129.59273827442087 87.37140472360102C-38.12803207999025 -121.92435057892908 368.83862160601154 -318.43852611161185 589.6239486799896 -259.92062273387023C810.4092757539674 -201.4027193561286 881.2545862743852 111.86734740458428 930.1768316806713 368.2573409367625C979.0990770869573 624.6473344689407 928.7388912598458 832.8031792214858 824.4507266301612 970.7513462205854 "></path><path d="M900.722515782179 370.0208592950935C946.9268586658936 612.1669642977063 899.3644609402884 808.7585954528877 800.8700832344753 939.0429753964818C702.3757055286619 1069.3273553400759 560.537179306064 1039.8637746856782 427.9495027942762 995.3858830243439C295.3618262824882 950.9079913630094 274.474333841948 911.1003841113138 164.44923597789307 725.549095422075C54.42413811383824 539.9978067328359 -186.55430058125904 302.4079106572749 -100.17096695318571 104.73969731599641C-13.787633325112324 -92.92851602528197 370.56976182277833 -278.52523736170457 579.0892373926463 -223.2583286160597C787.6087129625143 -167.99141987041486 854.5181728984644 127.87475429248059 900.722515782179 370.0208592950935C946.9268586658936 612.1669642977063 899.3644609402884 808.7585954528877 800.8700832344753 939.0429753964818 "></path><path d="M871.2683219539995 371.7843166182681C914.7547623151424 599.6865330913156 869.9901526910435 784.7139506491335 777.2895619091016 907.3345435372219C684.5889711271598 1029.9551364253105 551.0938876235383 1002.2247075741125 426.30548620067907 960.3631624810919C301.51708477781995 918.5016173880713 281.8582683631937 881.0356340923579 178.30523507937733 706.3991270907213C74.75220179556106 531.7626200890845 -152.0510346233541 308.14860025326243 -70.749073561638 122.10792887323566C10.5528875000781 -63.9327425067911 372.3010241098575 -238.61200964695354 568.5546481756157 -186.5960955334055C764.8082722413737 -134.58018141985735 827.7818815928563 143.88210014522065 871.2683219539995 371.7843166182681C914.7547623151424 599.6865330913156 869.9901526910435 784.7139506491335 777.2895619091016 907.3345435372219 "></path><path d="M841.8140365730856 373.5478044590209C882.5825744116571 587.2061324025028 840.6157528890642 760.669336362957 753.7089490309936 875.6261421955401C666.8021451729232 990.5829480281232 541.650504388278 964.5856709801251 424.66137805434755 925.3404724554182C307.6722517204171 886.0952739307113 289.242111331705 850.9709145909801 192.1611426281272 687.2491892769458C95.0801739245494 523.5274639629113 -117.54786021818353 313.8893203668281 -41.32727172282472 139.47619094805304C34.89331677253415 -34.93693847072211 374.0321948442024 -198.69875141462444 558.0199674058506 -149.9338319331731C742.0077399674988 -101.16891245172178 801.0454987345138 159.88947651553895 841.8140365730856 373.5478044590209C882.5825744116571 587.2061324025028 840.6157528890642 760.669336362957 753.7089490309936 875.6261421955401 "></path><path d="M812.3597511921712 375.31129229977364C850.4103865081715 574.72573171369 811.2413530870849 736.6247220767809 730.1283361528858 843.9177408538583C649.0153192186867 951.2107596309359 532.2071211530179 926.9466343861375 423.01726990801603 890.3177824297445C313.8274186630142 853.6889304733513 296.62595430021634 820.9061950896021 206.0170501768771 668.0992514631703C115.40814605353773 515.292307836738 -83.04468581301296 319.63004048039375 -11.905469884011382 156.8444530228703C59.2337460449902 -5.941134434653122 375.7633655785472 -158.78549318229528 547.4852866360856 -113.27156833294072C719.2072076936238 -67.75764348358615 774.3091158761711 175.89685288585724 812.3597511921712 375.31129229977364C850.4103865081715 574.72573171369 811.2413530870849 736.6247220767809 730.1283361528858 843.9177408538583 "></path><path d="M782.9054352936791 377.07471910537015C818.2381680871081 562.2452699897212 781.8669227675275 712.5800467554482 706.5476927571997 812.20927847702C631.2284627468721 911.8385101985918 522.7637074001796 889.3075367569938 421.3731312441064 855.2950313689146C319.98255508803334 821.2825259808353 304.0097667511495 790.8414145530683 219.87292720804885 648.9492526142383C135.73608766494806 507.0570906754085 -48.54154192542052 325.37069955880304 17.51630143722383 174.21265406253133C83.57414479986812 23.05460856625956 377.4945057953139 -118.87229598512243 536.9505753487424 -76.60936576786463C696.4066449021709 -34.34643555060677 747.5727025002504 191.90416822101918 782.9054352936791 377.07471910537015C818.2381680871081 562.2452699897212 781.8669227675275 712.5800467554482 706.5476927571997 812.20927847702 "></path><path d="M753.4511804303434 378.83823746370103C786.0660107012004 549.7648998184866 752.4925534831264 688.5354629868502 682.96711039667 780.5009076529163C613.4416673102137 872.4663523189829 513.3203546824975 851.6685306805844 419.729053615353 820.272371860819C326.1377525482087 788.8762130410535 311.39364023723897 760.7767255692684 233.72886527437674 629.7993453180409C156.06409031151452 498.8219650668134 -14.038337002671824 331.1114501899468 46.938133793615236 191.58094665492672C107.9146045899023 52.050443119906674 379.22570704723694 -78.95900723521515 526.4159250965555 -39.94707165005411C673.6061431458742 -0.9351360648930722 720.8363501594858 207.91157510891549 753.4511804303434 378.83823746370103C786.0660107012004 549.7648998184866 752.4925534831264 688.5354629868502 682.96711039667 780.5009076529163 "></path><path d="M723.9969560845856 380.6016947868758C753.8938838328713 537.2844686120959 723.1182147163033 664.4908181830956 659.3865585537184 748.7924757936564C595.6549023911333 833.0941334042172 503.87703248239336 814.0294635690188 418.08500650417784 785.249651317567C332.2929805259621 756.4698390661156 318.77754424090654 730.7119755503124 247.58483385828288 610.6493769866872C176.39212347565916 490.586778423062 20.464898437654995 336.85213978593436 76.35999666758482 208.94917821216598C132.2550948975146 81.04621663839754 380.956938816738 -39.04577952046418 515.8813053619467 -3.284838567399845C650.8056719071554 32.47610238566443 694.1000283362997 223.91892096165566 723.9969560845856 380.6016947868758C753.8938838328713 537.2844686120959 723.1182147163033 664.4908181830956 659.3865585537184 748.7924757936564 "></path><path d="M694.5427317388278 382.36521314520655C721.7217569645422 524.8040984408613 693.7438759494803 640.4462344144973 635.8060067107666 717.0841049695528C577.8681374720529 793.7219755246081 494.43371028228955 776.3904574926091 416.4409593930026 750.2269918094714C338.4482085037156 724.0635261263337 326.1614482445741 700.6472865665127 261.4408024421889 591.4994696904897C196.72015663980375 482.3516528144669 54.96813387798181 342.592890417078 105.78185954155435 226.31747080456137C156.59558520512695 110.0420511920446 382.68817058623904 0.867509229443101 505.34668562733793 33.377455550410616C628.0052006684367 65.88740187137819 667.3637065131134 239.92632784955197 694.5427317388278 382.36521314520655C721.7217569645422 524.8040984408613 693.7438759494803 640.4462344144973 635.8060067107666 717.0841049695528 "></path><path d="M665.0884158403356 384.1286704683812C689.5495385434787 512.3236672344703 664.3694456299229 616.4015896107429 612.2253633150806 685.3756731102927C560.0812810002383 754.3497566098426 484.99029652945114 738.7513903810437 414.79682072909293 715.2042712662196C344.6033449287346 691.6571521513955 333.5452606955074 670.5825365475566 275.2966794733607 572.3495013591362C217.04809825121401 474.1164661707155 89.47127776557426 348.33358001306556 135.20363086278957 243.6857023618005C180.93598396000488 139.03782471053546 384.4193108030058 40.780736944194075 494.8119743399948 70.03968863306488C605.2046378769837 99.2986403219357 640.6272931371926 255.93367370229214 665.0884158403356 384.1286704683812C689.5495385434787 512.3236672344703 664.3694456299229 616.4015896107429 612.2253633150806 685.3756731102927 "></path><path d="M635.6340999418435 385.89212779155594C657.377320122415 499.8432360280797 634.9950153103655 592.3569448069886 588.6447199193946 653.6672412510328C542.2944245284236 714.9775376950771 475.54688277661285 701.1123232694781 413.1526820651833 680.1815507229678C350.7584813537537 659.2507781764575 340.9290731464406 640.5177865286008 289.1525565045324 553.1995330277825C237.37603986262428 465.88127952696414 123.9744216531667 354.0742696090531 164.62540218402472 261.0539339190397C205.2763827148828 168.03359822902632 386.1504510197725 80.6939646589451 484.2772630526516 106.70192171571915C582.4040750855306 132.7098787724932 613.8908797612719 271.9410195550322 635.6340999418435 385.89212779155594C657.377320122415 499.8432360280797 634.9950153103655 592.3569448069886 588.6447199193946 653.6672412510328 "></path><path d="M606.1798603372965 387.6556461498868C625.2051779952967 487.362865856845 605.6206612847534 568.3123610383905 565.0641528176538 621.9588704269291C524.5076443505543 675.6053798154679 466.10354531771986 663.4733171930687 411.50861969521895 645.1588912148723C356.91369407271804 626.8444652366757 348.3129618913191 610.453097544801 303.0085098296495 534.0496257315851C257.7040577679798 457.646153918369 158.47764183470446 359.8150202401969 194.04724979920525 278.42222651143516C229.61685776370604 197.02943278267344 387.8816675304845 120.60725340885233 473.7426280592538 143.3642158335296C559.6035885880228 166.12117825820695 587.1545426792965 287.9484264429286 606.1798603372965 387.6556461498868C625.2051779952967 487.362865856845 605.6206612847534 568.3123610383905 565.0641528176538 621.9588704269291 "></path><path d="M576.7255902151717 389.4191187318505C593.0330053506002 474.8824499092433 576.2462767415632 544.2677314934251 541.483555198335 590.2504538264582C506.72083365510684 636.2331761594914 456.66017734124875 625.8342653402922 409.8645268076765 610.1361859304095C363.06887627410435 594.4381065205267 355.6968201186195 580.3883627846342 316.8644326371884 514.8996726590204C278.03204515575726 449.4109825334067 192.9808314986641 365.55572509497347 223.46906689680765 295.79047332746336C253.95730229495115 226.02522155995337 389.61285352361847 160.52049638239242 463.2079625482777 180.02646417497294C536.8030715729371 199.53243196755346 560.4181750797429 303.95578755445774 576.7255902151717 389.4191187318505C593.0330053506002 474.8824499092433 576.2462767415632 544.2677314934251 541.483555198335 590.2504538264582 "></path><path d="M547.2713353518358 391.1825913138142C560.860847964693 462.40203396164156 546.871907457162 520.2231019484595 517.9029728378052 558.5420372259873C488.93403821844834 596.860972503515 447.2168246235667 588.1952134875155 408.22044917892316 575.1134806459467C369.22407373427967 562.0317478043778 363.0806936047089 550.3236280244673 330.7203707035163 495.74971958645574C298.3600478023238 441.1758111484444 227.48403642141278 371.29642994974995 252.89089925319905 313.1587201434916C278.2977620849853 255.02101033723324 391.3440547755414 200.43373935593246 452.6733122960909 216.68871251641627C514.0025698166403 232.94368567690003 533.6818227389786 319.9631486659869 547.2713353518358 391.1825913138142C560.860847964693 462.40203396164156 546.871907457162 520.2231019484595 517.9029728378052 558.5420372259873 "></path><path d="M517.8170499709217 392.94606389577797C528.6886600612074 449.92161801403984 517.4975076551827 496.1784724034943 494.3223599596972 526.8336206255165C471.1472122642118 557.4887688475385 437.7734413883064 550.556161634739 406.57634103259164 540.0907753614839C375.37924067687686 529.6253890882288 370.4645365732203 520.2588932643005 344.5762782522662 476.59976651389127C318.6880199313121 432.94063976348207 261.98721082658335 377.03713480452654 282.3127010920124 330.5269669595199C302.63819135744137 284.01679911451316 393.07522550988625 240.34698232947255 442.13863152632575 253.35096085785955C491.2020375427653 266.3549393862466 506.94543988063594 335.9705097775161 517.8170499709217 392.94606389577797C528.6886600612074 449.92161801403984 517.4975076551827 496.1784724034943 494.3223599596972 526.8336206255165 "></path><path d="M488.36279510758584 394.7095517365307C496.5165026753001 437.4412173252271 488.1231383707816 472.133858117318 470.74177759916756 495.12521928383455C453.3604168275534 518.1165804503512 428.3300886706244 512.9171250407516 404.93226340383825 505.0680853358102C381.5344381370522 497.2190456308688 377.84841005930974 490.19417376292256 358.4322163185942 457.4498287001157C339.01602257787863 424.7054836373088 296.49041574933204 382.7778549180922 311.7345334484038 347.89522903433715C326.9786511474756 313.01260315058215 394.80642676180923 280.26024056180165 431.60398127413885 290.01322445809194C468.40153578646857 299.76620835438223 480.20908753987146 351.97788614783434 488.36279510758584 394.7095517365307C496.5165026753001 437.4412173252271 488.1231383707816 472.133858117318 470.74177759916756 495.12521928383455 "></path><path d="M458.90854024424993 396.4730243184945C464.3443452893928 424.9608013776254 458.74876908638043 448.0892285723526 447.1611952386377 463.4168026833637C435.57362139089497 478.7443767943747 418.8867359529423 475.278073187975 403.2881857750849 470.0453800513474C387.6896355972275 464.81268691471985 385.23228354539924 460.1294390027557 372.28815438492217 438.2998756275511C359.34402522444515 416.4703122523465 330.99362067208074 388.51855977286874 341.15636580479526 365.2634758503654C351.3191109375098 342.008391927862 396.5376280137322 320.17348353534175 421.06933102195194 326.67547279953527C445.6010340301717 333.17746206372874 453.47273519910703 367.9852472593635 458.90854024424993 396.4730243184945C464.3443452893928 424.9608013776254 458.74876908638043 448.0892285723526 447.1611952386377 463.4168026833637 "></path><path d="M429.45428538091403 398.2365274180363C432.17218790348545 412.4804159476017 429.3743998019793 424.04462954496535 423.5806128781079 431.7084166004709C417.7868259542366 439.3722036559764 409.4433832352602 437.63905185277656 401.6441081463315 435.02270528446275C393.8448330574028 432.406358716149 392.6161570314887 430.0647347601669 386.1440924512502 419.1499530725646C379.6720278710116 408.2351713849623 365.49682559482943 394.2592951452234 370.57819816118666 382.63175318397174C375.65957072754395 371.0042112227201 398.26882926565514 360.0867570264599 410.53468076976503 363.33775165855667C422.8005322738749 366.58874629065343 426.7363828583426 383.9926388884708 429.45428538091403 398.2365274180363C432.17218790348545 412.4804159476017 429.3743998019793 424.04462954496535 423.5806128781079 431.7084166004709 "></path></g></svg>