<svg xmlns="http://www.w3.org/2000/svg" version="1.1" xmlns:xlink="http://www.w3.org/1999/xlink" xmlns:svgjs="http://svgjs.dev/svgjs" viewBox="0 0 800 800" opacity="0.1"><g stroke-width="1" stroke="hsl(0, 0%, 0%)" fill="none"><path d="M1815.0536329512493 -297.97202801329354C1956.446357706483 116.40259146454582 1742.062510442836 1124.9587313169036 1146.3990575612142 1403.9305840137317C550.7356046795924 1682.902436710559 -902.7382161253063 1455.467484409322 -1044.1309408805405 1041.0928649314828C-1185.5236656357745 626.7182454536435 -127.94947414552848 -306.0957367830671 467.7139787360934 -585.0675894798949C1063.3774316177155 -864.0394421767227 1673.660908196015 -712.3466474911329 1815.0536329512493 -297.97202801329354C1956.446357706483 116.40259146454582 1742.062510442836 1124.9587313169036 1146.3990575612142 1403.9305840137317 "></path><path d="M1769.406744519039 -275.45679244324526C1906.2384136370074 125.5509038256314 1698.7701743496073 1101.572974650494 1122.321671560941 1371.5457353248435C545.8731687722745 1641.5184959991925 -860.7143997485954 1421.420155062512 -997.5460688665637 1020.4124587936349C-1134.3777379845321 619.4047625247583 -110.91884299397134 -283.3184460914133 465.5296597946949 -553.2912067657627C1041.9781625833612 -823.2639674401122 1632.5750754010705 -676.4644887121219 1769.406744519039 -275.45679244324526C1906.2384136370074 125.5509038256314 1698.7701743496073 1101.572974650494 1122.321671560941 1371.5457353248435 "></path><path d="M1723.7598560868287 -252.941556873197C1856.0304695675313 134.6992161867172 1655.4778382563777 1078.1872179840839 1098.2442855606669 1339.1608866359552C541.0107328649565 1600.134555287826 -818.6905833718844 1387.3728257157013 -950.9611968525871 999.7320526557871C-1083.23181033329 612.0912795958732 -93.88821184241465 -260.5411553997594 463.34534085329597 -521.5148240516305C1020.5788935490068 -782.4884927035016 1591.4892426061256 -640.5823299331112 1723.7598560868287 -252.941556873197C1856.0304695675313 134.6992161867172 1655.4778382563777 1078.1872179840839 1098.2442855606669 1339.1608866359552 "></path><path d="M1678.1129676546184 -230.42635182072684C1805.8225254980557 143.84749803022487 1612.185502163149 1054.8014308000963 1074.1668995603936 1306.7760074294893C536.1482969576384 1558.750584058882 -776.6667669951734 1353.3254658513133 -904.3763248386106 979.0516160003615C-1032.0858826820477 604.7777661494099 -76.85758069085773 -237.76389522568365 461.1610219118975 -489.73847185507645C999.1796245146525 -741.7130484844693 1550.4034098111815 -604.7002016716784 1678.1129676546184 -230.42635182072684C1805.8225254980557 143.84749803022487 1612.185502163149 1054.8014308000963 1074.1668995603936 1306.7760074294893 "></path><path d="M1632.466079222408 -207.91111625067856C1755.61458142858 152.99581039131044 1568.8931660699195 1031.4156741336865 1050.08951356012 1274.391158740601C531.2858610503204 1517.3666433475155 -734.6429506184624 1319.2781365045025 -857.791452824634 958.3712098625135C-980.9399550308055 597.4642832205245 -59.82694953930104 -214.98660453402977 458.97670297049876 -457.9620891409443C977.7803554802986 -700.9375737478588 1509.3175770162366 -568.8180428926676 1632.466079222408 -207.91111625067856C1755.61458142858 152.99581039131044 1568.8931660699195 1031.4156741336865 1050.08951356012 1274.391158740601 "></path><path d="M1586.8191907901983 -185.39585016305205C1705.4066373591045 162.14415326997437 1525.6008299766909 1008.0299479848552 1026.0121275598467 1242.0063405692913C526.4234251430023 1475.9827331537272 -692.6191342417515 1285.2308376752708 -811.2065808106573 937.6908342422441C-929.7940273795633 590.1508308092177 -42.79631838774412 -192.20928332479775 456.79238402910005 -426.18567590923396C956.3810864459442 -660.1620684936702 1468.2317442212925 -532.9358535960787 1586.8191907901983 -185.39585016305205C1705.4066373591045 162.14415326997437 1525.6008299766909 1008.0299479848552 1026.0121275598467 1242.0063405692913 "></path><path d="M1541.1721802876755 -162.880645110582C1655.198571219316 171.29243511348204 1482.3083718131488 984.644160800867 1001.9346194892605 1209.621461362825C521.560867165372 1434.5987619247826 -650.5954399353529 1251.1834778108823 -764.6218308669933 917.010397586818C-878.6482217986336 582.8373173627542 -25.765809306499705 -169.432023150722 454.60794301738883 -394.40932371267985C934.9816953412774 -619.3866242746378 1427.145789356035 -497.05372533464595 1541.1721802876755 -162.880645110582C1655.198571219316 171.29243511348204 1482.3083718131488 984.644160800867 1001.9346194892605 1209.621461362825 "></path><path d="M1495.5252918554656 -140.36553161084612C1604.9906271498398 180.44062540425512 1439.0160357199202 961.2582820641451 977.8572334889868 1177.2364906036248C516.6984312580539 1393.2146991431046 -608.5716235586419 1217.1360263937595 -718.0369588530166 896.329869378658C-827.5022941473914 575.5237123635566 -8.735178154942787 -146.6548545293806 452.4236240759901 -362.63306306886017C913.582426306923 -578.6112716083397 1386.059956561091 -461.1716886259476 1495.5252918554656 -140.36553161084612C1604.9906271498398 180.44062540425512 1439.0160357199202 961.2582820641451 977.8572334889868 1177.2364906036248 "></path><path d="M1449.8785254935678 -117.85017397048546C1554.7828051506772 189.5890598356533 1395.7238216970031 937.8726474680477 953.7799695590261 1144.851763985049C511.8361174210486 1351.8308805020506 -566.5476851116184 1183.0888191172614 -671.4519647687275 875.6495853111228C-776.3562444258366 568.2103515049839 8.29557506692663 -123.87744176741421 450.2394272049039 -330.8565582844155C892.1832793428816 -537.8356748014168 1344.9742458364585 -425.2894077766243 1449.8785254935678 -117.85017397048546C1554.7828051506772 189.5890598356533 1395.7238216970031 937.8726474680477 953.7799695590261 1144.851763985049 "></path><path d="M1404.231514991045 -95.33506047074957C1504.5747390108886 198.7372501264266 1352.431363533462 914.4867687313258 929.7024614884399 1112.4667932258487C506.973559443418 1310.4468177203717 -524.5239908052199 1149.0413677001388 -624.8672148250635 854.9690571029626C-725.2104388449069 560.8967465057863 25.32608414817082 -101.10027314607282 448.0549861931929 -299.08029764059575C870.7838882382148 -497.0603221351187 1303.888290971202 -389.4073710679259 1404.231514991045 -95.33506047074957C1504.5747390108886 198.7372501264266 1352.431363533462 914.4867687313258 929.7024614884399 1112.4667932258487 "></path><path d="M1358.5846570764134 -72.81976386554516C1454.3668254589911 207.88562352266854 1309.139057957811 891.101073100072 905.6251060057443 1080.0820055721167C502.1111540536781 1269.0629380441615 -482.50014391093083 1114.9940993884848 -578.2823122935088 834.2887120002711C-674.0644806760865 553.5833246120574 42.356745817305864 -78.32292141926268 445.8706977693723 -267.3038538913073C849.3846497214388 -456.28478636335194 1262.8024886938351 -353.52515125375885 1358.5846570764134 -72.81976386554516C1454.3668254589911 207.88562352266854 1309.139057957811 891.101073100072 905.6251060057443 1080.0820055721167 "></path><path d="M1312.9378907145156 -50.30455881307489C1404.1590034598275 217.0339053661762 1265.8468439348944 867.7152859160844 881.5478420757834 1047.6971263656508C497.24884021667253 1227.678966815217 -440.4762054639073 1080.9467395240965 -531.6973182092196 813.6082753448452C-622.9184309545319 546.2698111655941 59.38749903917517 -55.54566124518692 443.6865008982859 -235.52750169475325C827.985502757397 -415.5093421443196 1221.7167779692036 -317.6430229923261 1312.9378907145156 -50.30455881307489C1404.1590034598275 217.0339053661762 1265.8468439348944 867.7152859160844 881.5478420757834 1047.6971263656508 "></path><path d="M1267.2908802119928 -27.789353760604854C1353.9509373200394 226.18218720968378 1222.5543857713528 844.3294987320965 857.4703340051974 1015.3122471591844C492.386282239042 1186.2949955862725 -398.45251115750887 1046.8993796597078 -485.11256826555547 792.9278386894193C-571.7726253736021 538.9562977191308 76.41800812041959 -32.76840107111116 441.5020598865749 -203.7511494981992C806.5861116527303 -374.7338979252872 1180.630823103946 -281.7608947308934 1267.2908802119928 -27.789353760604854C1353.9509373200394 226.18218720968378 1222.5543857713528 844.3294987320965 857.4703340051974 1015.3122471591844 "></path><path d="M1221.644052814939 -5.2741181905564645C1303.74305428572 235.33049957076958 1179.26211071328 820.943742065687 833.3930090400802 982.9273984702968C487.5239073668804 1144.9110548749063 -356.4286337456416 1012.8520503128977 -438.52763521642265 772.2474325515716C-520.6266366872037 531.6428147902457 93.44870030713275 -9.991110379457268 439.31780198033243 -171.97476678406701C785.1869036535325 -333.9584231886767 1139.5450513441579 -245.87873595188256 1221.644052814939 -5.2741181905564645C1303.74305428572 235.33049957076958 1179.26211071328 820.943742065687 833.3930090400802 982.9273984702968 "></path><path d="M1175.9971949003068 17.241117379491698C1253.5351407338223 244.47881193185526 1135.969805137629 797.5579853992772 809.3156535573846 950.5425497814085C482.66150197714023 1103.5271141635399 -314.40478685135247 978.8047209660874 -391.9427326848679 751.5670264137239C-469.48067851838334 524.3293318613603 110.47936197626768 12.78618031219662 437.13351355651184 -140.19838406993483C763.7876651367562 -293.18294845206617 1098.4592490667915 -209.99657717287175 1175.9971949003068 17.241117379491698C1253.5351407338223 244.47881193185526 1135.969805137629 797.5579853992772 809.3156535573846 950.5425497814085 "></path><path d="M1130.3503064680967 39.75635294953997C1203.3271966643465 253.62712429294083 1092.6774690444 774.1722287328676 785.2382675571112 918.1577010925205C477.7990660698224 1062.1431734521736 -272.38097047464146 944.7573916192771 -345.3578606708913 730.8866202758761C-418.3347508671411 517.0158489324754 127.5099931278246 35.563471003850395 434.94919461511336 -108.42200135580265C742.3883961024019 -252.40747371545564 1057.373416271847 -174.1144183938609 1130.3503064680967 39.75635294953997C1203.3271966643465 253.62712429294083 1092.6774690444 774.1722287328676 785.2382675571112 918.1577010925205 "></path><path d="M1084.7034180358867 62.27158851958825C1153.1192525948709 262.77543665402663 1049.3851329511708 750.7864720664579 761.1608815568377 885.7728524036327C472.93663016250457 1020.7592327408072 -230.3571540979305 910.710062272467 -298.7729886569147 710.2062141380284C-367.1888232158989 509.7023660035902 144.54062427938152 58.340761695504284 432.76487567371464 -76.64561864167041C720.9891270680478 -211.63199897884516 1016.2875834769025 -138.23225961485008 1084.7034180358867 62.27158851958825C1153.1192525948709 262.77543665402663 1049.3851329511708 750.7864720664579 761.1608815568377 885.7728524036327 "></path><path d="M1039.056438050942 84.78682408963664C1102.9112169726607 271.92374901511243 1006.0927053052073 727.4007154000483 737.0834040038296 853.3880037147446C468.0741027024519 979.375292029441 -188.33342927395387 876.6627329256567 -252.18820819567247 689.5258080001809C-316.0429871173911 502.38888307470495 161.57116387820395 81.11805238715817 430.58046517958155 -44.86923592753823C699.589766480959 -170.85652424223463 975.2016591292236 -102.35010083583921 1039.056438050942 84.78682408963664C1102.9112169726607 271.92374901511243 1006.0927053052073 727.4007154000483 737.0834040038296 853.3880037147446 "></path><path d="M993.4096106538882 107.30205965968491C1052.7033339383413 281.0720613761981 962.8004302471345 704.0149587336387 713.0060790387124 821.0031550258566C463.2117278302902 937.9913513180745 -146.30955186208666 842.6154035788463 -205.6032751465396 668.8454018623329C-264.8969984309926 495.0754001458198 178.601856064917 103.89534307881206 428.3962072733391 -13.092853213406045C678.1905584817612 -130.08104950562415 934.1158873694353 -66.4679420568284 993.4096106538882 107.30205965968491C1052.7033339383413 281.0720613761981 962.8004302471345 704.0149587336387 713.0060790387124 821.0031550258566 "></path><path d="M947.7626611865219 129.8172952297332C1002.495328833709 290.2203737372838 919.5080331187492 680.6292020672288 688.9286320032825 788.6183063369685C458.349230887816 896.6074106067085 -104.2857965205319 808.568074232036 -159.01846416771923 648.1649957244854C-213.7511318149066 487.76191721693453 195.63242618131767 126.67263377046595 426.2118272967841 18.683529500726195C656.7912284122506 -89.30557476901362 893.0299935393346 -30.58578327781754 947.7626611865219 129.8172952297332C1002.495328833709 290.2203737372838 919.5080331187492 680.6292020672288 688.9286320032825 788.6183063369685 "></path><path d="M902.1157727543116 152.33253079978147C952.2873847642334 299.3686860983696 876.2156970255201 657.2434454008192 664.851246003009 756.2334576480807C453.4867949804981 855.2234698953421 -62.26198014382089 774.5207448852257 -112.43359215374267 627.4845895866375C-162.60520416366438 480.4484342880494 212.66305733287447 149.44992446211984 424.0275083553855 50.45991221485838C635.3919593778965 -48.53010003240314 851.94416074439 5.296375501193268 902.1157727543116 152.33253079978147C952.2873847642334 299.3686860983696 876.2156970255201 657.2434454008192 664.851246003009 756.2334576480807 "></path><path d="M856.4689453572578 174.8477053346735C902.0795017299138 308.51693742429904 832.9234219674472 633.8576276992532 640.7739210378918 723.8485479240362C448.62442010833627 813.8394681488194 -20.23810273195369 740.4733545032591 -65.8486591046098 606.8041224136335C-111.45921547726596 473.134890324008 229.69374951958753 172.22715411861748 421.84325044914294 82.23623389383431C613.9927513786984 -7.754686330948857 810.8583889846018 41.17847324504788 856.4689453572578 174.8477053346735C902.0795017299138 308.51693742429904 832.9234219674472 633.8576276992532 640.7739210378918 723.8485479240362 "></path><path d="M810.8219958898912 197.36294090472177C851.8714966252819 317.66524978538473 789.6310248390619 610.4718710328435 616.696474002462 691.4636992351484C443.7619231658621 772.4555274374532 21.785652609601073 706.4260251564489 -19.263848125789423 586.1237162757858C-60.313348861179975 465.82140739512283 246.7243196359882 195.00444481027137 419.6588704725881 114.01261660796649C592.5934213091881 33.02078840566162 769.7724951545008 77.06063202405869 810.8219958898912 197.36294090472177C851.8714966252819 317.66524978538473 789.6310248390619 610.4718710328435 616.696474002462 691.4636992351484 "></path><path d="M765.1751074576812 219.87817647477C801.6635525558061 326.8135621464704 746.3386887458328 587.0861143664338 592.6190880021884 659.0788505462602C438.899487258544 731.0715867260868 63.80946898631208 672.3786958096385 27.321023888187142 565.443310137938C-9.167421209937743 458.5079244662377 263.7549507875451 217.7817355019252 417.4745515311895 145.78899932209868C571.1941522748338 73.79626314227215 728.6866623595563 112.94279080306956 765.1751074576812 219.87817647477C801.6635525558061 326.8135621464704 746.3386887458328 587.0861143664338 592.6190880021884 659.0788505462602 "></path><path d="M719.528219025471 242.39339678602926C751.4556084863303 335.96185924876715 703.0463526526037 563.7003424412351 568.5417020019148 626.6939865985833C434.03705135122595 689.6876307559314 105.83328536302304 638.3313512040393 73.90589590216376 544.7628887413014C41.97850644130449 451.19442627856347 280.78558193910203 240.55901093479002 415.2902325897908 177.5653667774418C549.7948832404795 114.57172262009362 687.6008295646118 148.8249343232913 719.528219025471 242.39339678602926C751.4556084863303 335.96185924876715 703.0463526526037 563.7003424412351 568.5417020019148 626.6939865985833 "></path><path d="M673.8813305932609 264.90863235607753C701.2476644168545 345.11017160985284 659.7540165593746 540.3145857748253 544.4643160016412 594.3091379096952C429.174615443908 648.3036900445652 147.85710173973405 604.2840218572289 120.49076791614038 524.0824826034536C93.12443409254672 443.8809433496782 297.81621309065883 263.3363016264439 413.10591364839206 209.34174949157403C528.3956142061253 155.3471973567041 646.5149967696673 184.70709310230217 673.8813305932609 264.90863235607753C701.2476644168545 345.11017160985284 659.7540165593746 540.3145857748253 544.4643160016412 594.3091379096952 "></path><path d="M628.2344574198398 287.4238679261258C651.0397356061678 354.2584839709386 616.4616957249345 516.9288291084156 520.3869452601568 561.9242892208072C424.3121947953791 606.9197493331988 189.88093337523412 570.2366925104186 167.075655188906 503.4020764656059C144.27037700257796 436.56746042079305 314.8468595010047 286.1135923180978 410.9216099657824 241.11813220570622C506.9963604305601 196.12267209331463 605.4291792335118 220.58925188131298 628.2344574198398 287.4238679261258C651.0397356061678 354.2584839709386 616.4616957249345 516.9288291084156 520.3869452601568 561.9242892208072 "></path><path d="M582.5875689876297 309.9391034961741C600.8317915366921 363.40679633202427 573.1693596317054 493.54307244200595 496.30955925988326 529.5394405319191C419.44975888806107 565.5358086218325 231.90474975194508 536.1893631636083 213.66052720288263 482.72167032775815C195.4163046538202 429.2539774919079 331.8774906525616 308.8908830097517 408.7372910243838 272.8945149198384C485.597091396206 236.89814682992517 564.3433464385672 256.47141066032384 582.5875689876297 309.9391034961741C600.8317915366921 363.40679633202427 573.1693596317054 493.54307244200595 496.30955925988326 529.5394405319191 "></path><path d="M536.9406805554195 332.45430854864424C550.6238474672164 372.5550781755319 529.8770235384764 470.1572852580182 472.2321732596097 497.1545613254531C414.58732298074307 524.1518373928881 273.9285661286561 502.14200329921994 260.24539921685925 462.0412336723323C246.56223230506242 421.94046404544457 348.9081218041185 331.6681431838274 406.5529720829851 304.67086711639246C464.19782236185165 277.6735910489575 523.2575136436227 292.3535389217565 536.9406805554195 332.45430854864424C550.6238474672164 372.5550781755319 529.8770235384764 470.1572852580182 472.2321732596097 497.1545613254531 "></path><path d="M491.2937921232094 354.9695441186925C500.4159033977405 381.70339053661763 486.58468744524725 446.77152859160844 448.15478725933616 464.76971263656503C409.72488707342507 482.76789668152173 315.9523825053671 468.0946739524096 306.8302712308359 441.36082753448454C297.7081599563046 414.6269811165594 365.93875295567534 354.4454338754813 404.36865314158644 336.4472498305247C442.79855332749753 318.44906578556805 482.1716808486781 328.2356977007674 491.2937921232094 354.9695441186925C500.4159033977405 381.70339053661763 486.58468744524725 446.77152859160844 448.15478725933616 464.76971263656503 "></path><path d="M445.6468884322102 377.4847644299517C450.20794406947573 390.85168763891426 443.2923360932291 423.3857566664097 424.0773860002736 432.384848688888C404.862435907318 441.38394071136634 357.976183623289 434.0473293468103 353.4151279860234 420.68040613784774C348.85407234875777 407.31348292888515 382.96936884844314 377.2227093083461 402.18431894139866 368.2236172858678C421.39926903435423 359.22452526338947 441.0858327949445 364.11784122098913 445.6468884322102 377.4847644299517C450.20794406947573 390.85168763891426 443.2923360932291 423.3857566664097 424.0773860002736 432.384848688888 "></path></g></svg>