<svg id="Capa_1" data-name="Capa 1" xmlns="http://www.w3.org/2000/svg" viewBox="0 0 204.09 43.85"><title>JB</title><path d="M85.52,25.07A29.66,29.66,0,0,0,84,12.82a4.11,4.11,0,0,1,.08-2.25c0-.2.19-.36.14-.55a2.17,2.17,0,0,1,0-.45,11.78,11.78,0,0,1,0-2.92c.15-2.41.71-3.07,1.31-3.32a.64.64,0,0,1,.23-.05,1.3,1.3,0,0,0,.12-.35,3,3,0,0,0,.07-.47h0a3.4,3.4,0,0,1-.37-1.08A1.56,1.56,0,0,1,85.86,0H80.4V15.71L71.73.07H65.06V26.88h6.13V11.2l8.7,15.68h5.52C85.39,26.54,85.47,25.79,85.52,25.07Z" transform="translate(-1.89)"/><path d="M103.37,13.83a9.28,9.28,0,0,0-2.68-3.08,6.41,6.41,0,0,0,.91-3.35A6.47,6.47,0,0,0,101,4.54,7.22,7.22,0,0,0,99.2,2.21,8.63,8.63,0,0,0,93.44.05L88.08,0a1.73,1.73,0,0,1,.38.43c.18.33,0,.84,0,1.31s.12.79-.2.71c-.54-.15-.14,1.07-1,.84a2.11,2.11,0,0,0-.28.6.68.68,0,0,1-.12.27,4.28,4.28,0,0,1,.59,1.49,4,4,0,0,1,0,.5,12,12,0,0,0,2.9-.09c.52-.13,1.51-.91,1.73-.91a1,1,0,0,1,.6.23A.5.5,0,0,1,93.26,5h1.58a.75.75,0,0,1,.69-.58h2a.84.84,0,0,1,.74.9v6.51a.5.5,0,0,1-.5.5H92.47a.5.5,0,0,1-.5-.5V10.39a.5.5,0,0,1,.5-.5h2.32V7.11H93.26a.51.51,0,0,1-.51-.52V6.33a1.14,1.14,0,0,1-.28.12,5.08,5.08,0,0,0-2.67.66c-.3.13-1.65.38-2.31.51,0,.4-.07.68,0,.7,1.54.59,1.71.73,2.37.53.18-.06.42-.6.47-.63.27-.2.22.27.34.25a.94.94,0,0,1,.38,0L91,8.35c0-.27-.35-.37-.17-.55a2.15,2.15,0,0,1,.77-.28,2,2,0,0,1,.24,0c.6-.15.59-.32.57.51L93,9c0,.16,0,.16-.19.35a2.69,2.69,0,0,1-.77.33c-.56.19-.64,0-.69-.22a.35.35,0,0,1-.34.09c-.67-.18-2.27.57-3.68.42,1.15,1.43,1.75,8,.27,14.05-.34,1.93.07,1.76,1.08,2.17a4,4,0,0,1,1.11.64l4.41,0a10.81,10.81,0,0,0,4-.71,10.54,10.54,0,0,0,3.24-1.94,9.29,9.29,0,0,0,2.2-2.9,8.1,8.1,0,0,0,.8-3.55A8,8,0,0,0,103.37,13.83Zm-5.47,5a3.26,3.26,0,0,1-.89.93,4.64,4.64,0,0,1-1.3.64,5,5,0,0,1-1.54.24H92.5v-5.9h1.67a5,5,0,0,1,1.54.24,4.64,4.64,0,0,1,1.3.64,3.2,3.2,0,0,1,.89,1,2.2,2.2,0,0,1,.33,1.14A2.11,2.11,0,0,1,97.9,18.88Z" transform="translate(-1.89)"/><path d="M21.89.1V16.91a9.45,9.45,0,0,1-.81,3.89A10.48,10.48,0,0,1,18.93,24a10,10,0,0,1-3.16,2.11,9.64,9.64,0,0,1-3.86.77H11.8A10.11,10.11,0,0,1,8,26a10.45,10.45,0,0,1-3.23-2.21A9.91,9.91,0,0,1,2.6,20.58a9.58,9.58,0,0,1-.7-3.85L8,16.8a3.9,3.9,0,0,0,1.12,2.79,3.82,3.82,0,0,0,2.79,1.19,4.06,4.06,0,0,0,1.51-.29,3.81,3.81,0,0,0,1.26-.82,4.27,4.27,0,0,0,.86-1.26,3.63,3.63,0,0,0,.32-1.54V.1Z" transform="translate(-1.89)"/><path d="M33,26.83a10,10,0,0,1-3.86-.74A10.13,10.13,0,0,1,25.93,24a10.43,10.43,0,0,1-2.24-3.27,10.14,10.14,0,0,1-.82-3.89V.12H29V16.76a3.83,3.83,0,0,0,1.2,2.8,4,4,0,0,0,2.84,1.13,3.63,3.63,0,0,0,1.53-.33,4.2,4.2,0,0,0,1.28-.87,3.73,3.73,0,0,0,.83-1.27,4.09,4.09,0,0,0,.3-1.56V.12h6.15v16.5a9.61,9.61,0,0,1-.75,3.92,10.14,10.14,0,0,1-2.15,3.24,10.43,10.43,0,0,1-3.2,2.2,10,10,0,0,1-3.91.85Z" transform="translate(-1.89)"/><polygon points="56.15 26.79 53.41 17.5 50.96 9.55 45.57 26.79 39.03 26.79 48.16 0.06 54 0.06 62.65 26.79 56.15 26.79"/><path d="M133.79,19.87c-.31.05-.63.08-.94.1l-1,.08v6.76h-6.06V.1h6.06a11.71,11.71,0,0,1,7.7,3,10.08,10.08,0,0,1,2.34,3.14,8.89,8.89,0,0,1,.84,3.83,9,9,0,0,1-.9,4,9.56,9.56,0,0,1-2.51,3.19l5.81,9.56H138Zm-1.91-6a6.26,6.26,0,0,0,1.85-.35,5.26,5.26,0,0,0,1.54-.82,3.94,3.94,0,0,0,1-1.19,2.91,2.91,0,0,0,.37-1.44,2.85,2.85,0,0,0-.37-1.43,4.09,4.09,0,0,0-1-1.16,5.28,5.28,0,0,0-1.54-.83,6.25,6.25,0,0,0-1.85-.34Z" transform="translate(-1.89)"/><rect x="143.59" y="0.11" width="6.07" height="26.7"/><path d="M161.67,26.83a9.63,9.63,0,0,1-2.49-.33,8.45,8.45,0,0,1-2.35-1,8.61,8.61,0,0,1-4.09-7.42h6.06a2.55,2.55,0,0,0,.47,1.63,3.36,3.36,0,0,0,.83.78,2.71,2.71,0,0,0,1.39.46,3.31,3.31,0,0,0,1.48-.28,2.38,2.38,0,0,0,.8-.53,2.5,2.5,0,0,0,.47-.61,1.74,1.74,0,0,0,.2-.58c0-.18,0-.34,0-.45s0-.27,0-.46a2,2,0,0,0-.2-.59,2.33,2.33,0,0,0-.47-.61,3.2,3.2,0,0,0-.8-.55c-.27-.11-.55-.22-.85-.31s-.61-.2-1-.32c-.59-.18-1.22-.39-1.86-.63a9.87,9.87,0,0,1-1.94-.94A7.61,7.61,0,0,1,154,9.65a7.67,7.67,0,0,1-.25-2.75,7,7,0,0,1,.81-2.71A7.74,7.74,0,0,1,160.89.13a8.42,8.42,0,0,1,2.76.25,8.3,8.3,0,0,1,2.47,1A8,8,0,0,1,168,3a7.1,7.1,0,0,1,1.24,2.15,7.4,7.4,0,0,1,.42,2.49h-6a1.19,1.19,0,0,0-.52-1.12,3.29,3.29,0,0,0-.92-.42l-.34-.06a2.07,2.07,0,0,0-.61,0,2.37,2.37,0,0,0-.7.25,1.36,1.36,0,0,0-.57.61,1.53,1.53,0,0,0-.11,1.17,1.66,1.66,0,0,0,.72,1,7.14,7.14,0,0,0,1.11.51c.41.15.84.3,1.29.44l1.24.39c.42.13.84.3,1.27.48A8.41,8.41,0,0,1,169.2,14a8.07,8.07,0,0,1,1.34,4.52A8,8,0,0,1,169.2,23,8.41,8.41,0,0,1,165.51,26a8.76,8.76,0,0,1-1.9.61,9.74,9.74,0,0,1-1.94.19" transform="translate(-1.89)"/><polygon points="184.47 0.11 184.47 6.23 179.41 6.23 179.41 26.81 173.34 26.81 173.34 6.23 168.31 6.23 168.31 0.11 184.47 0.11"/><polygon points="117.03 26.84 114.3 17.56 111.84 9.6 106.45 26.84 99.92 26.84 109.04 0.11 114.88 0.11 123.53 26.84 117.03 26.84"/><polygon points="197.6 26.79 194.86 17.5 192.41 9.55 187.02 26.79 180.49 26.79 189.61 0.06 195.45 0.06 204.09 26.79 197.6 26.79"/><path d="M73.27,30.51v.92H69.86v9.4h-1v-9.4H65.43v-.92Z" transform="translate(-1.89)"/><path d="M74.66,40.83V29.28h1v4.9A3.13,3.13,0,0,1,78.1,33c1.69,0,2.56,1,2.56,3.18v4.62h-1V36.3c0-1.94-.4-2.37-1.73-2.37a2.17,2.17,0,0,0-2.35,1.77v5.13Z" transform="translate(-1.89)"/><path d="M89.19,37.29H83.3A2.59,2.59,0,0,0,86,40,2,2,0,0,0,88,39h1a2.86,2.86,0,0,1-3,2A3.65,3.65,0,0,1,82.28,37c0-2.43,1.49-4,3.57-4a3.36,3.36,0,0,1,3.37,3.68A3.51,3.51,0,0,1,89.19,37.29Zm-.93-.88a2.34,2.34,0,0,0-2.41-2.48,2.43,2.43,0,0,0-2.52,2.48Z" transform="translate(-1.89)"/><path d="M103.22,33.17h-1a3,3,0,0,0-2.9-1.86c-2.26,0-3.61,1.68-3.61,4.34S97,40,99.29,40a2.73,2.73,0,0,0,3-2h1.06a3.82,3.82,0,0,1-4,2.92c-2.83,0-4.68-2.12-4.68-5.29s1.89-5.26,4.68-5.26A4,4,0,0,1,103.22,33.17Z" transform="translate(-1.89)"/><path d="M112.25,37a3.79,3.79,0,1,1-7.57,0,3.79,3.79,0,1,1,7.57,0Zm-1,0c0-1.94-1.12-3.06-2.76-3.06S105.7,35.05,105.7,37s1.12,3,2.77,3S111.23,38.91,111.23,37Z" transform="translate(-1.89)"/><path d="M117.91,29.32v.89a4.39,4.39,0,0,0-1.12-.14c-.89,0-1.26.4-1.26,2v1.08h2.25v.9h-2.25v6.78h-1V34.05h-1.65v-.9h1.65V32c0-1.69.65-2.84,2.19-2.84A3.7,3.7,0,0,1,117.91,29.32Z" transform="translate(-1.89)"/><path d="M123.66,29.32v.89a4.39,4.39,0,0,0-1.12-.14c-.89,0-1.26.4-1.26,2v1.08h2.25v.9h-2.25v6.78h-1V34.05h-1.65v-.9h1.65V32c0-1.69.64-2.84,2.19-2.84A3.75,3.75,0,0,1,123.66,29.32Z" transform="translate(-1.89)"/><path d="M131.09,37.29H125.2A2.6,2.6,0,0,0,127.87,40a2,2,0,0,0,2-1.09h1a2.87,2.87,0,0,1-3,2A3.65,3.65,0,0,1,124.19,37c0-2.43,1.49-4,3.57-4a3.35,3.35,0,0,1,3.36,3.68A3.51,3.51,0,0,1,131.09,37.29Zm-.93-.88a2.33,2.33,0,0,0-2.4-2.48,2.43,2.43,0,0,0-2.53,2.48Z" transform="translate(-1.89)"/><path d="M139.38,37.29h-5.89A2.59,2.59,0,0,0,136.15,40a2,2,0,0,0,2-1.09h1a2.87,2.87,0,0,1-3,2A3.65,3.65,0,0,1,132.47,37c0-2.43,1.49-4,3.57-4a3.36,3.36,0,0,1,3.37,3.68A3.51,3.51,0,0,1,139.38,37.29Zm-.93-.88A2.34,2.34,0,0,0,136,33.93a2.42,2.42,0,0,0-2.52,2.48Z" transform="translate(-1.89)"/><path d="M151.36,38h-4.93l-1.08,2.81h-1.07l4.07-10.36h1.1l4.06,10.36h-1.09ZM151,37.1l-2.12-5.44-2.12,5.44Z" transform="translate(-1.89)"/><path d="M160.24,38.56h1A3,3,0,0,1,158,40.94,3.7,3.7,0,0,1,154.25,37c0-2.43,1.49-4,3.7-4a3,3,0,0,1,3.17,2.32h-1A2,2,0,0,0,158,33.93c-1.79,0-2.68,1.15-2.68,3.06s1,3,2.77,3A2,2,0,0,0,160.24,38.56Z" transform="translate(-1.89)"/><path d="M169,39.94v.89h0a1.35,1.35,0,0,1-1.45-1,2.58,2.58,0,0,1-2.3,1.16c-1.49,0-2.85-.73-2.85-2.36s1.36-2.37,3-2.37a4.27,4.27,0,0,1,2,.52v-1c0-1.2-.53-1.78-1.81-1.78-1.13,0-1.65.32-1.95,1h-1A2.63,2.63,0,0,1,165.56,33a2.53,2.53,0,0,1,2.77,2.8v3.42c0,.47.17.69.61.69Zm-3.76.1a2,2,0,0,0,2.1-1.46v-.94a3.48,3.48,0,0,0-1.88-.55c-1.32,0-2.11.44-2.11,1.5S164,40,165.27,40Z" transform="translate(-1.89)"/><path d="M173.57,33a3.2,3.2,0,0,1,2.54,1.15v-4.9h1V40.83h-1v-1a3.23,3.23,0,0,1-2.54,1.15A3.73,3.73,0,0,1,170,37,3.71,3.71,0,0,1,173.57,33Zm.09,7a2.25,2.25,0,0,0,2.45-1.81V35.74a2.25,2.25,0,0,0-2.45-1.81c-1.61,0-2.64,1.16-2.64,3S172.05,40,173.66,40Z" transform="translate(-1.89)"/><path d="M185.68,37.29h-5.89A2.59,2.59,0,0,0,182.46,40a2,2,0,0,0,2-1.09h1a2.85,2.85,0,0,1-3,2A3.65,3.65,0,0,1,178.78,37c0-2.43,1.48-4,3.56-4a3.36,3.36,0,0,1,3.37,3.68A3.51,3.51,0,0,1,185.68,37.29Zm-.93-.88a2.34,2.34,0,0,0-2.41-2.48,2.43,2.43,0,0,0-2.52,2.48Z" transform="translate(-1.89)"/><path d="M198,35.92v4.91h-1V35.88c0-1.44-.55-2-1.61-2a2.09,2.09,0,0,0-2.22,1.75v5.15h-1V35.88c0-1.5-.6-2-1.56-2a2.16,2.16,0,0,0-2.26,1.75v5.15h-1V33.15h1v1.06A3,3,0,0,1,190.74,33a2.19,2.19,0,0,1,2.12,1.39A2.79,2.79,0,0,1,195.45,33C197,33,198,34.12,198,35.92Z" transform="translate(-1.89)"/><path d="M205.77,33.15l-3.31,9.05c-.4,1.12-1,1.65-2.05,1.65a5.58,5.58,0,0,1-1-.12v-.9a4.88,4.88,0,0,0,1,.12c.76,0,.9-.2,1.61-2.15l-3-7.65H200l2.45,6.37,2.25-6.37Z" transform="translate(-1.89)"/></svg>