<svg width="205" height="27" viewBox="0 0 205 27" fill="none" xmlns="http://www.w3.org/2000/svg">
<g clip-path="url(#clip0_175_271)">
<path d="M83.6299 25.06C83.9939 20.92 83.4828 16.7497 82.1299 12.82C81.9469 12.0738 81.9746 11.2914 82.2099 10.56C82.2099 10.36 82.3999 10.2 82.3499 10.01C82.3344 9.86374 82.3344 9.71626 82.3499 9.57C82.2288 8.60043 82.2288 7.61957 82.3499 6.65C82.4999 4.24 83.0599 3.58 83.6599 3.33C83.7229 3.29919 83.7904 3.27892 83.8599 3.27C83.9164 3.15965 83.9568 3.04179 83.9799 2.92C84.0156 2.76543 84.039 2.60827 84.0499 2.45C83.8666 2.11343 83.7415 1.74828 83.6799 1.37C83.6132 1.13528 83.6047 0.887818 83.6552 0.649081C83.7058 0.410345 83.8138 0.187542 83.9699 0H78.5099V15.71L69.8399 0.0700002H63.1699V26.88H69.2999V11.2L77.9999 26.88H83.5199C83.4899 26.54 83.5799 25.79 83.6299 25.06Z" fill="#141415"/>
<path d="M101.48 13.83C100.826 12.6171 99.9107 11.565 98.7998 10.75C99.3464 9.81488 99.6566 8.76056 99.7037 7.67843C99.7507 6.59631 99.5331 5.51903 99.0698 4.54C98.6479 3.65157 98.049 2.85869 97.3098 2.21C95.7203 0.806903 93.6699 0.0380145 91.5498 0.0500039H86.1798C86.3347 0.164542 86.467 0.306976 86.5698 0.470003C86.7498 0.800003 86.5698 1.32 86.5698 1.79C86.5698 2.26 86.6898 2.58 86.3698 2.5C85.8698 2.27 86.2698 3.53 85.4098 3.27C85.2854 3.45402 85.1909 3.65651 85.1298 3.87C85.11 3.96771 85.0691 4.05989 85.0098 4.14C85.2984 4.59151 85.4986 5.09375 85.5998 5.62C85.6106 5.78983 85.6106 5.96018 85.5998 6.13C86.5665 6.21741 87.5403 6.18719 88.4998 6.04C89.0198 5.9 90.0098 5.12 90.2298 5.12C90.4496 5.12858 90.6605 5.20942 90.8298 5.35C90.8618 5.24801 90.9258 5.15898 91.0122 5.09599C91.0985 5.033 91.2029 4.99936 91.3098 5H92.8898C92.9282 4.84346 93.0161 4.70347 93.1404 4.6008C93.2647 4.49813 93.4188 4.43824 93.5798 4.43H95.5798C95.7947 4.45279 95.9923 4.55853 96.1305 4.72473C96.2687 4.89094 96.3366 5.1045 96.3198 5.32V11.87C96.3198 12.0026 96.2671 12.1298 96.1733 12.2236C96.0795 12.3173 95.9524 12.37 95.8198 12.37H90.5798C90.4472 12.37 90.32 12.3173 90.2262 12.2236C90.1324 12.1298 90.0798 12.0026 90.0798 11.87V10.38C90.0798 10.2474 90.1324 10.1202 90.2262 10.0265C90.32 9.93268 90.4472 9.88 90.5798 9.88H92.8998V7.11H91.4098C91.3419 7.11002 91.2748 7.0965 91.2123 7.07025C91.1497 7.044 91.0931 7.00553 91.0456 6.95711C90.9981 6.90869 90.9607 6.85128 90.9357 6.78824C90.9106 6.72521 90.8984 6.65781 90.8998 6.59V6.33C90.8122 6.38235 90.718 6.42271 90.6198 6.45C89.686 6.42031 88.7621 6.64868 87.9498 7.11C87.6498 7.24 86.2998 7.49 85.6398 7.62C85.6398 8.02 85.5698 8.3 85.6398 8.32C87.1798 8.91 87.3498 9.05 88.0098 8.85C88.1898 8.79 88.4298 8.25 88.4798 8.22C88.7498 8.02 88.6998 8.49 88.8198 8.47C88.9485 8.4604 89.0779 8.47742 89.1998 8.52V8.35C89.1998 8.08 88.8498 7.98 89.0298 7.8C89.2661 7.65818 89.5275 7.56312 89.7998 7.52C89.8797 7.5152 89.9598 7.5152 90.0398 7.52C90.6398 7.37 90.6298 7.2 90.6098 8.03L91.1798 9.03C91.1798 9.19 91.1798 9.19 90.9898 9.38C90.7519 9.52954 90.4921 9.64089 90.2198 9.71C89.6598 9.89 89.5798 9.71 89.5298 9.49C89.4861 9.53367 89.4316 9.56501 89.3719 9.58081C89.3122 9.59662 89.2493 9.59634 89.1898 9.58C88.5198 9.4 86.9198 10.14 85.5098 9.99C86.6598 11.43 87.2598 17.99 85.7798 24.05C85.4398 25.98 85.8498 25.81 86.8598 26.22C87.2599 26.3698 87.6318 26.5862 87.9598 26.86H92.3798C93.7292 26.872 95.069 26.6311 96.3298 26.15C97.5178 25.7037 98.6154 25.0465 99.5698 24.21C100.487 23.3979 101.235 22.4123 101.77 21.31C102.302 20.2027 102.576 18.9887 102.57 17.76C102.552 16.3778 102.177 15.0238 101.48 13.83ZM96.0098 18.88C95.7779 19.2461 95.4753 19.5622 95.1198 19.81C94.7226 20.0901 94.2839 20.3061 93.8198 20.45C93.3221 20.61 92.8025 20.691 92.2798 20.69H90.6098V14.79H92.2798C92.8025 14.789 93.3221 14.87 93.8198 15.03C94.2839 15.1739 94.7226 15.3899 95.1198 15.67C95.4836 15.9369 95.7869 16.2777 96.0098 16.67C96.2221 17.0126 96.3363 17.4069 96.3398 17.81C96.3281 18.1899 96.2141 18.5596 96.0098 18.88Z" fill="#141415"/>
<path d="M19.9901 0.0999756V16.9C20.0032 18.2388 19.7305 19.565 19.1901 20.79C18.6712 21.9675 17.9389 23.0389 17.0301 23.95C15.1685 25.7965 12.6521 26.8318 10.0301 26.83H9.91009C8.58871 26.8203 7.2828 26.5448 6.07009 26.02C3.63467 24.9829 1.70553 23.0286 0.700085 20.58C0.208177 19.3539 -0.0299565 18.0407 8.51336e-05 16.72L6.07009 16.8C6.06374 17.8388 6.46182 18.8394 7.18009 19.59C7.54125 19.9677 7.9761 20.2674 8.45772 20.4703C8.93933 20.6733 9.45747 20.7753 9.98009 20.77C10.4968 20.775 11.0096 20.68 11.4901 20.49C11.9611 20.3055 12.3873 20.0225 12.7401 19.66C13.103 19.2991 13.3977 18.8756 13.6101 18.41C13.8233 17.9247 13.9323 17.4 13.9301 16.87V0.0999756H19.9901Z" fill="#141415"/>
<path d="M31.13 26.83C29.816 26.8415 28.5126 26.594 27.2944 26.1016C26.0761 25.6091 24.9668 24.8814 24.03 23.96C23.084 23.0229 22.3269 21.9128 21.8 20.69C21.2691 19.4613 20.9902 18.1385 20.98 16.8V0.109985H27.13V16.76C27.1278 17.284 27.2332 17.8028 27.4396 18.2844C27.646 18.766 27.9491 19.2002 28.33 19.56C29.0897 20.2978 30.1111 20.7041 31.17 20.69C31.6977 20.6903 32.2193 20.5778 32.7 20.36C33.1718 20.148 33.6019 19.8533 33.97 19.49C34.3313 19.1458 34.6173 18.7303 34.81 18.27C35.004 17.7694 35.1024 17.2369 35.1 16.7V0.109985H41.25V16.62C41.2854 17.9644 41.0331 19.301 40.51 20.54C40.0205 21.7427 39.308 22.842 38.41 23.78C37.4869 24.7075 36.3981 25.4537 35.2 25.98C33.968 26.5262 32.6376 26.8155 31.29 26.83H31.13Z" fill="#141415"/>
<path d="M56.1498 26.79L53.4098 17.5L50.9598 9.55L45.5698 26.79H39.0298L48.1598 0.0599976H53.9998L62.6498 26.79H56.1498Z" fill="#141415"/>
<path d="M131.89 19.86C131.58 19.91 131.27 19.95 130.96 19.97L129.96 20.05V26.8H123.89V0.0999756H129.96C131.41 0.117979 132.844 0.402726 134.19 0.939976C135.464 1.44702 136.639 2.17484 137.66 3.08998C138.652 3.98077 139.455 5.06228 140.02 6.26998C140.582 7.46821 140.869 8.7767 140.86 10.1C140.871 11.4836 140.566 12.8514 139.97 14.1C139.351 15.3261 138.478 16.4067 137.41 17.27L143.23 26.82H136.09L131.89 19.86ZM129.99 13.86C130.621 13.8354 131.244 13.7175 131.84 13.51C132.405 13.3147 132.934 13.0312 133.41 12.67C133.82 12.3444 134.16 11.9397 134.41 11.48C134.659 11.0409 134.79 10.5448 134.79 10.04C134.791 9.53823 134.66 9.04506 134.41 8.60998C134.154 8.16007 133.815 7.763 133.41 7.43998C132.942 7.08856 132.423 6.81192 131.87 6.61998C131.275 6.41105 130.651 6.29633 130.02 6.27998L129.99 13.86Z" fill="#141415"/>
<path d="M149.66 0.109985H143.59V26.81H149.66V0.109985Z" fill="#141415"/>
<path d="M159.78 26.83C158.939 26.8299 158.102 26.7189 157.29 26.5C156.458 26.2853 155.663 25.9483 154.93 25.5C153.679 24.7127 152.647 23.6224 151.93 22.33C151.209 21.0303 150.837 19.5662 150.85 18.08H156.92C156.897 18.6504 157.07 19.2115 157.41 19.67C157.634 19.9797 157.912 20.2472 158.23 20.46C158.648 20.7339 159.131 20.8925 159.63 20.92C160.135 20.9408 160.638 20.845 161.1 20.64C161.404 20.522 161.68 20.3414 161.91 20.11C162.092 19.9277 162.25 19.7227 162.38 19.5C162.478 19.3196 162.542 19.1232 162.57 18.92C162.582 18.7703 162.582 18.6198 162.57 18.47C162.582 18.3169 162.582 18.1631 162.57 18.01C162.54 17.804 162.476 17.6045 162.38 17.42C162.255 17.191 162.097 16.982 161.91 16.8C161.67 16.5782 161.397 16.3959 161.1 16.26C160.826 16.1415 160.545 16.038 160.26 15.95L159.31 15.63C158.71 15.45 158.09 15.23 157.44 15C156.763 14.7523 156.114 14.4374 155.5 14.06C154.689 13.5532 153.98 12.8985 153.41 12.13C152.273 10.6363 151.741 8.76874 151.92 6.90002C152.003 5.95232 152.275 5.03084 152.72 4.19002C153.53 2.66018 154.829 1.44563 156.41 0.740025C157.22 0.396783 158.082 0.19064 158.96 0.130025C159.887 0.0613947 160.819 0.142431 161.72 0.370025C162.592 0.568487 163.426 0.90615 164.19 1.37002C164.912 1.81254 165.557 2.36985 166.1 3.02002C166.663 3.65163 167.107 4.38008 167.41 5.17002C167.699 5.96476 167.844 6.80443 167.84 7.65002H161.84C161.863 7.43374 161.827 7.21528 161.735 7.01801C161.643 6.82073 161.5 6.65206 161.32 6.53003C161.038 6.34781 160.732 6.20641 160.41 6.11002C160.295 6.10455 160.181 6.08781 160.07 6.06002C159.869 6.01988 159.661 6.01988 159.46 6.06002C159.214 6.10433 158.978 6.1888 158.76 6.31002C158.508 6.448 158.305 6.66125 158.18 6.92002C158.087 7.09885 158.03 7.29427 158.013 7.49505C157.996 7.69583 158.019 7.89803 158.08 8.09002C158.182 8.50092 158.436 8.85807 158.79 9.09002C159.149 9.28956 159.524 9.4601 159.91 9.60002C160.31 9.75002 160.74 9.90002 161.2 10.04C161.66 10.18 162.02 10.28 162.43 10.42C162.84 10.56 163.28 10.73 163.71 10.91C165.212 11.5588 166.493 12.6286 167.4 13.99C168.274 15.3282 168.739 16.8918 168.739 18.49C168.739 20.0882 168.274 21.6519 167.4 22.99C166.491 24.3492 165.21 25.4183 163.71 26.07C163.101 26.3436 162.464 26.5482 161.81 26.68C161.171 26.8076 160.521 26.8713 159.87 26.87" fill="#141415"/>
<path d="M184.47 0.109985V6.22999H179.41V26.81H173.34V6.22999H168.31V0.109985H184.47Z" fill="#141415"/>
<path d="M117.03 26.84L114.3 17.56L111.84 9.59999L106.45 26.84H99.9199L109.04 0.109985H114.88L123.53 26.84H117.03Z" fill="#141415"/>
<path d="M197.6 26.79L194.86 17.5L192.41 9.55L187.02 26.79H180.49L189.61 0.0599976H195.45L204.09 26.79H197.6Z" fill="#141415"/>
</g>
<defs>
<clipPath id="clip0_175_271">
<rect width="204.09" height="26.88" fill="white"/>
</clipPath>
</defs>
</svg>
