<svg width="205" height="44" viewBox="0 0 205 44" fill="none" xmlns="http://www.w3.org/2000/svg">
<g clip-path="url(#clip0_256_2991)">
<mask id="mask0_256_2991" style="mask-type:luminance" maskUnits="userSpaceOnUse" x="0" y="0" width="205" height="27">
<path d="M204.09 0H0V26.88H204.09V0Z" fill="white"/>
</mask>
<g mask="url(#mask0_256_2991)">
<path d="M83.6299 25.06C83.9939 20.92 83.4828 16.7497 82.1299 12.82C81.9469 12.0738 81.9746 11.2914 82.2099 10.56C82.2099 10.36 82.3999 10.2 82.3499 10.01C82.3344 9.86374 82.3344 9.71626 82.3499 9.57C82.2288 8.60043 82.2288 7.61957 82.3499 6.65C82.4999 4.24 83.0599 3.58 83.6599 3.33C83.7229 3.29919 83.7904 3.27892 83.8599 3.27C83.9164 3.15965 83.9568 3.04179 83.9799 2.92C84.0156 2.76543 84.039 2.60827 84.0499 2.45C83.8666 2.11343 83.7415 1.74828 83.6799 1.37C83.6132 1.13528 83.6047 0.887818 83.6552 0.649081C83.7058 0.410345 83.8138 0.187542 83.9699 0H78.5099V15.71L69.8399 0.0700002H63.1699V26.88H69.2999V11.2L77.9999 26.88H83.5199C83.4899 26.54 83.5799 25.79 83.6299 25.06Z" fill="#141415"/>
<path d="M101.481 13.8299C100.827 12.617 99.9116 11.5649 98.8007 10.7499C99.3473 9.81482 99.6575 8.7605 99.7046 7.67837C99.7516 6.59625 99.534 5.51897 99.0707 4.53994C98.6488 3.65151 98.0499 2.85863 97.3107 2.20994C95.7212 0.806842 93.6708 0.0379534 91.5507 0.0499428H86.1807C86.3356 0.164481 86.4679 0.306915 86.5707 0.469942C86.7507 0.799942 86.5707 1.31994 86.5707 1.78994C86.5707 2.25994 86.6907 2.57994 86.3707 2.49994C85.8707 2.26994 86.2707 3.52994 85.4107 3.26994C85.2863 3.45396 85.1918 3.65645 85.1307 3.86994C85.1109 3.96765 85.07 4.05983 85.0107 4.13994C85.2993 4.59145 85.4995 5.09369 85.6007 5.61994C85.6115 5.78977 85.6115 5.96012 85.6007 6.12994C86.5674 6.21735 87.5412 6.18713 88.5007 6.03994C89.0207 5.89994 90.0107 5.11994 90.2307 5.11994C90.4505 5.12852 90.6614 5.20936 90.8307 5.34994C90.8627 5.24795 90.9267 5.15892 91.0131 5.09593C91.0994 5.03294 91.2038 4.9993 91.3107 4.99994H92.8907C92.9291 4.8434 93.017 4.70341 93.1413 4.60074C93.2656 4.49807 93.4197 4.43818 93.5807 4.42994H95.5807C95.7956 4.45273 95.9932 4.55847 96.1314 4.72467C96.2696 4.89088 96.3375 5.10444 96.3207 5.31994V11.8699C96.3207 12.0025 96.268 12.1297 96.1742 12.2235C96.0804 12.3172 95.9533 12.3699 95.8207 12.3699H90.5807C90.4481 12.3699 90.3209 12.3172 90.2271 12.2235C90.1333 12.1297 90.0807 12.0025 90.0807 11.8699V10.3799C90.0807 10.2473 90.1333 10.1201 90.2271 10.0264C90.3209 9.93262 90.4481 9.87994 90.5807 9.87994H92.9007V7.10994H91.4107C91.3428 7.10996 91.2757 7.09644 91.2132 7.07019C91.1506 7.04394 91.094 7.00547 91.0465 6.95705C90.999 6.90863 90.9616 6.85122 90.9366 6.78818C90.9115 6.72515 90.8993 6.65775 90.9007 6.58994V6.32994C90.8131 6.38229 90.7189 6.42265 90.6207 6.44994C89.6869 6.42025 88.763 6.64862 87.9507 7.10994C87.6507 7.23994 86.3007 7.48994 85.6407 7.61994C85.6407 8.01994 85.5707 8.29994 85.6407 8.31994C87.1807 8.90994 87.3507 9.04994 88.0107 8.84994C88.1907 8.78994 88.4307 8.24994 88.4807 8.21994C88.7507 8.01994 88.7007 8.48994 88.8207 8.46994C88.9494 8.46034 89.0788 8.47736 89.2007 8.51994V8.34994C89.2007 8.07994 88.8507 7.97994 89.0307 7.79994C89.267 7.65812 89.5284 7.56306 89.8007 7.51994C89.8806 7.51514 89.9607 7.51514 90.0407 7.51994C90.6407 7.36994 90.6307 7.19994 90.6107 8.02994L91.1807 9.02994C91.1807 9.18994 91.1807 9.18994 90.9907 9.37994C90.7528 9.52948 90.493 9.64083 90.2207 9.70994C89.6607 9.88994 89.5807 9.70994 89.5307 9.48994C89.487 9.53361 89.4325 9.56495 89.3728 9.58075C89.3131 9.59656 89.2502 9.59628 89.1907 9.57994C88.5207 9.39994 86.9207 10.1399 85.5107 9.98994C86.6607 11.4299 87.2607 17.9899 85.7807 24.0499C85.4407 25.9799 85.8507 25.8099 86.8607 26.2199C87.2608 26.3697 87.6327 26.5861 87.9607 26.8599H92.3807C93.7301 26.8719 95.0699 26.631 96.3307 26.1499C97.5187 25.7036 98.6163 25.0464 99.5707 24.2099C100.488 23.3978 101.236 22.4122 101.771 21.3099C102.303 20.2026 102.577 18.9886 102.571 17.7599C102.553 16.3777 102.178 15.0237 101.481 13.8299ZM96.0107 18.8799C95.7788 19.246 95.4762 19.5621 95.1207 19.8099C94.7235 20.09 94.2848 20.306 93.8207 20.4499C93.323 20.6099 92.8034 20.6909 92.2807 20.6899H90.6107V14.7899H92.2807C92.8034 14.7889 93.323 14.8699 93.8207 15.0299C94.2848 15.1738 94.7235 15.3898 95.1207 15.6699C95.4845 15.9368 95.7878 16.2776 96.0107 16.6699C96.223 17.0125 96.3372 17.4068 96.3407 17.8099C96.329 18.1898 96.215 18.5595 96.0107 18.8799Z" fill="#141415"/>
<path d="M19.9906 0.100098V16.9001C20.0037 18.2389 19.731 19.5651 19.1906 20.7901C18.6717 21.9676 17.9394 23.039 17.0306 23.9501C15.169 25.7966 12.6526 26.8319 10.0306 26.8301H9.91058C8.5892 26.8204 7.28329 26.5449 6.07058 26.0201C3.63516 24.983 1.70602 23.0287 0.700573 20.5801C0.208665 19.354 -0.0294682 18.0408 0.000573414 16.7201L6.07058 16.8001C6.06423 17.8389 6.46231 18.8395 7.18058 19.5901C7.54174 19.9678 7.97659 20.2675 8.45821 20.4704C8.93982 20.6734 9.45796 20.7754 9.98058 20.7701C10.4973 20.7751 11.0101 20.6801 11.4906 20.4901C11.9616 20.3056 12.3878 20.0226 12.7406 19.6601C13.1035 19.2992 13.3982 18.8757 13.6106 18.4101C13.8238 17.9248 13.9328 17.4001 13.9306 16.8701V0.100098H19.9906Z" fill="#141415"/>
<path d="M31.1305 26.8299C29.8165 26.8414 28.5131 26.5939 27.2949 26.1015C26.0766 25.609 24.9673 24.8813 24.0305 23.9599C23.0845 23.0228 22.3274 21.9127 21.8005 20.6899C21.2696 19.4612 20.9907 18.1384 20.9805 16.7999V0.109863H27.1305V16.7599C27.1283 17.2839 27.2337 17.8027 27.4401 18.2843C27.6465 18.7659 27.9496 19.2001 28.3305 19.5599C29.0902 20.2977 30.1116 20.704 31.1705 20.6899C31.6982 20.6902 32.2198 20.5777 32.7005 20.3599C33.1723 20.1479 33.6024 19.8532 33.9705 19.4899C34.3318 19.1457 34.6178 18.7302 34.8105 18.2699C35.0045 17.7693 35.1029 17.2368 35.1005 16.6999V0.109863H41.2505V16.6199C41.2859 17.9643 41.0336 19.3009 40.5105 20.5399C40.021 21.7426 39.3085 22.8419 38.4105 23.7799C37.4874 24.7074 36.3986 25.4536 35.2005 25.9799C33.9685 26.5261 32.6381 26.8154 31.2905 26.8299H31.1305Z" fill="#141415"/>
<path d="M56.1503 26.7901L53.4103 17.5001L50.9603 9.55006L45.5703 26.7901H39.0303L48.1603 0.0600586H54.0003L62.6503 26.7901H56.1503Z" fill="#141415"/>
<path d="M131.891 19.8601C131.581 19.9101 131.271 19.9501 130.961 19.9701L129.961 20.0501V26.8001H123.891V0.100098H129.961C131.411 0.118101 132.845 0.402848 134.191 0.940098C135.465 1.44714 136.64 2.17496 137.661 3.0901C138.653 3.98089 139.456 5.0624 140.021 6.2701C140.583 7.46833 140.87 8.77682 140.861 10.1001C140.872 11.4837 140.567 12.8515 139.971 14.1001C139.352 15.3262 138.479 16.4068 137.411 17.2701L143.231 26.8201H136.091L131.891 19.8601ZM129.991 13.8601C130.622 13.8355 131.245 13.7176 131.841 13.5101C132.406 13.3148 132.935 13.0313 133.411 12.6701C133.821 12.3445 134.161 11.9398 134.411 11.4801C134.66 11.041 134.791 10.5449 134.791 10.0401C134.792 9.53835 134.661 9.04518 134.411 8.6101C134.155 8.16019 133.816 7.76312 133.411 7.4401C132.943 7.08868 132.424 6.81204 131.871 6.6201C131.276 6.41117 130.652 6.29645 130.021 6.2801L129.991 13.8601Z" fill="#141415"/>
<path d="M149.661 0.109863H143.591V26.8099H149.661V0.109863Z" fill="#141415"/>
<path d="M159.781 26.8301C158.94 26.83 158.103 26.719 157.291 26.5001C156.459 26.2854 155.664 25.9484 154.931 25.5001C153.68 24.7128 152.648 23.6225 151.931 22.3301C151.21 21.0304 150.838 19.5663 150.851 18.0801H156.921C156.898 18.6505 157.071 19.2116 157.411 19.6701C157.635 19.9798 157.913 20.2473 158.231 20.4601C158.649 20.734 159.132 20.8926 159.631 20.9201C160.136 20.9409 160.639 20.8451 161.101 20.6401C161.405 20.5221 161.681 20.3415 161.911 20.1101C162.093 19.9278 162.251 19.7228 162.381 19.5001C162.479 19.3197 162.543 19.1233 162.571 18.9201C162.583 18.7704 162.583 18.6199 162.571 18.4701C162.583 18.317 162.583 18.1632 162.571 18.0101C162.541 17.8041 162.477 17.6046 162.381 17.4201C162.256 17.1911 162.098 16.9821 161.911 16.8001C161.671 16.5783 161.398 16.396 161.101 16.2601C160.827 16.1416 160.546 16.0381 160.261 15.9501L159.311 15.6301C158.711 15.4501 158.091 15.2301 157.441 15.0001C156.764 14.7524 156.115 14.4375 155.501 14.0601C154.69 13.5533 153.981 12.8986 153.411 12.1301C152.274 10.6364 151.742 8.7688 151.921 6.90008C152.004 5.95238 152.276 5.0309 152.721 4.19008C153.531 2.66024 154.83 1.44569 156.411 0.740086C157.221 0.396844 158.083 0.190701 158.961 0.130086C159.888 0.0614557 160.82 0.142492 161.721 0.370086C162.593 0.568548 163.427 0.906211 164.191 1.37008C164.913 1.8126 165.558 2.36991 166.101 3.02008C166.664 3.65169 167.108 4.38014 167.411 5.17008C167.7 5.96482 167.845 6.80449 167.841 7.65008H161.841C161.864 7.4338 161.828 7.21534 161.736 7.01807C161.644 6.82079 161.501 6.65212 161.321 6.53009C161.039 6.34787 160.733 6.20647 160.411 6.11008C160.296 6.10461 160.182 6.08787 160.071 6.06008C159.87 6.01994 159.662 6.01994 159.461 6.06008C159.215 6.10439 158.979 6.18886 158.761 6.31008C158.509 6.44806 158.306 6.66131 158.181 6.92008C158.088 7.09891 158.031 7.29433 158.014 7.49511C157.997 7.69589 158.02 7.89809 158.081 8.09008C158.183 8.50098 158.437 8.85813 158.791 9.09008C159.15 9.28962 159.525 9.46016 159.911 9.60008C160.311 9.75008 160.741 9.90008 161.201 10.0401C161.661 10.1801 162.021 10.2801 162.431 10.4201C162.841 10.5601 163.281 10.7301 163.711 10.9101C165.213 11.5589 166.494 12.6287 167.401 13.9901C168.275 15.3283 168.74 16.8919 168.74 18.4901C168.74 20.0883 168.275 21.652 167.401 22.9901C166.492 24.3493 165.211 25.4184 163.711 26.0701C163.102 26.3437 162.465 26.5483 161.811 26.6801C161.172 26.8077 160.522 26.8714 159.871 26.8701" fill="#141415"/>
<path d="M184.471 0.109863V6.22987H179.411V26.8099H173.341V6.22987H168.311V0.109863H184.471Z" fill="#141415"/>
<path d="M117.03 26.8399L114.3 17.5599L111.84 9.59987L106.45 26.8399H99.9199L109.04 0.109863H114.88L123.53 26.8399H117.03Z" fill="#141415"/>
<path d="M197.6 26.7901L194.86 17.5001L192.41 9.55006L187.02 26.7901H180.49L189.61 0.0600586H195.45L204.09 26.7901H197.6Z" fill="#141415"/>
</g>
</g>
<path d="M17.9588 41V32.2727H21.0696C21.7486 32.2727 22.3111 32.3963 22.7571 32.6435C23.2031 32.8906 23.5369 33.2287 23.7585 33.6577C23.9801 34.0838 24.0909 34.5639 24.0909 35.098C24.0909 35.6349 23.9787 36.1179 23.7543 36.5469C23.5327 36.973 23.1974 37.3111 22.7486 37.5611C22.3026 37.8082 21.7415 37.9318 21.0653 37.9318H18.9261V36.8153H20.946C21.375 36.8153 21.723 36.7415 21.9901 36.5938C22.2571 36.4432 22.4531 36.2386 22.5781 35.9801C22.7031 35.7216 22.7656 35.4276 22.7656 35.098C22.7656 34.7685 22.7031 34.4759 22.5781 34.2202C22.4531 33.9645 22.2557 33.7642 21.9858 33.6193C21.7188 33.4744 21.3665 33.402 20.929 33.402H19.2756V41H17.9588ZM25.5323 41V34.4545H26.7638V35.4943H26.832C26.9513 35.142 27.1616 34.8651 27.4627 34.6634C27.7667 34.4588 28.1104 34.3565 28.494 34.3565C28.5735 34.3565 28.6673 34.3594 28.7752 34.3651C28.886 34.3707 28.9727 34.3778 29.0352 34.3864V35.6051C28.984 35.5909 28.8931 35.5753 28.7624 35.5582C28.6317 35.5384 28.5011 35.5284 28.3704 35.5284C28.0692 35.5284 27.8008 35.5923 27.565 35.7202C27.332 35.8452 27.1474 36.0199 27.011 36.2443C26.8746 36.4659 26.8065 36.7187 26.8065 37.0028V41H25.5323ZM32.6605 41.1321C32.0469 41.1321 31.5114 40.9915 31.054 40.7102C30.5966 40.429 30.2415 40.0355 29.9886 39.5298C29.7358 39.0241 29.6094 38.4332 29.6094 37.7571C29.6094 37.0781 29.7358 36.4844 29.9886 35.9759C30.2415 35.4673 30.5966 35.0724 31.054 34.7912C31.5114 34.5099 32.0469 34.3693 32.6605 34.3693C33.2741 34.3693 33.8097 34.5099 34.267 34.7912C34.7244 35.0724 35.0795 35.4673 35.3324 35.9759C35.5852 36.4844 35.7116 37.0781 35.7116 37.7571C35.7116 38.4332 35.5852 39.0241 35.3324 39.5298C35.0795 40.0355 34.7244 40.429 34.267 40.7102C33.8097 40.9915 33.2741 41.1321 32.6605 41.1321ZM32.6648 40.0625C33.0625 40.0625 33.392 39.9574 33.6534 39.7472C33.9148 39.5369 34.108 39.2571 34.233 38.9077C34.3608 38.5582 34.4247 38.1733 34.4247 37.7528C34.4247 37.3352 34.3608 36.9517 34.233 36.6023C34.108 36.25 33.9148 35.9673 33.6534 35.7543C33.392 35.5412 33.0625 35.4347 32.6648 35.4347C32.2642 35.4347 31.9318 35.5412 31.6676 35.7543C31.4063 35.9673 31.2116 36.25 31.0838 36.6023C30.9588 36.9517 30.8963 37.3352 30.8963 37.7528C30.8963 38.1733 30.9588 38.5582 31.0838 38.9077C31.2116 39.2571 31.4063 39.5369 31.6676 39.7472C31.9318 39.9574 32.2642 40.0625 32.6648 40.0625ZM40.2489 34.4545V35.4773H36.5501V34.4545H40.2489ZM37.5643 41V33.696C37.5643 33.2869 37.6538 32.9474 37.8327 32.6776C38.0117 32.4048 38.2489 32.2017 38.5444 32.0682C38.8398 31.9318 39.1609 31.8636 39.5075 31.8636C39.7631 31.8636 39.9819 31.8849 40.1637 31.9276C40.3455 31.9673 40.4805 32.0043 40.5685 32.0384L40.2702 33.0696C40.2106 33.0526 40.1339 33.0327 40.0401 33.0099C39.9464 32.9844 39.8327 32.9716 39.6992 32.9716C39.3896 32.9716 39.168 33.0483 39.0344 33.2017C38.9038 33.3551 38.8384 33.5767 38.8384 33.8665V41H37.5643ZM44.1268 41.1321C43.4819 41.1321 42.9265 40.9943 42.4606 40.7188C41.9975 40.4403 41.6396 40.0497 41.3867 39.5469C41.1367 39.0412 41.0117 38.4489 41.0117 37.7699C41.0117 37.0994 41.1367 36.5085 41.3867 35.9972C41.6396 35.4858 41.9918 35.0866 42.4435 34.7997C42.8981 34.5128 43.4293 34.3693 44.0373 34.3693C44.4066 34.3693 44.7646 34.4304 45.1112 34.5526C45.4577 34.6747 45.7688 34.8665 46.0444 35.1278C46.32 35.3892 46.5373 35.7287 46.6964 36.1463C46.8555 36.5611 46.935 37.0653 46.935 37.6591V38.1108H41.7319V37.1562H45.6864C45.6864 36.821 45.6183 36.5241 45.4819 36.2656C45.3455 36.0043 45.1538 35.7983 44.9066 35.6477C44.6623 35.4972 44.3754 35.4219 44.0458 35.4219C43.6879 35.4219 43.3754 35.5099 43.1083 35.6861C42.8441 35.8594 42.6396 36.0866 42.4947 36.3679C42.3526 36.6463 42.2816 36.9489 42.2816 37.2756V38.0213C42.2816 38.4588 42.3583 38.831 42.5117 39.1378C42.668 39.4446 42.8853 39.679 43.1637 39.8409C43.4421 40 43.7674 40.0795 44.1396 40.0795C44.381 40.0795 44.6012 40.0455 44.8001 39.9773C44.9989 39.9062 45.1708 39.8011 45.3157 39.6619C45.4606 39.5227 45.5714 39.3509 45.6481 39.1463L46.854 39.3636C46.7575 39.7187 46.5842 40.0298 46.3342 40.2969C46.087 40.5611 45.7759 40.767 45.4009 40.9148C45.0288 41.0597 44.604 41.1321 44.1268 41.1321ZM53.2536 36.0526L52.0987 36.2571C52.0504 36.1094 51.9737 35.9687 51.8686 35.8352C51.7663 35.7017 51.6271 35.5923 51.451 35.5071C51.2749 35.4219 51.0547 35.3793 50.7905 35.3793C50.4297 35.3793 50.1286 35.4602 49.8871 35.6222C49.6456 35.7812 49.5249 35.9872 49.5249 36.2401C49.5249 36.4588 49.6058 36.6349 49.7678 36.7685C49.9297 36.902 50.1911 37.0114 50.5518 37.0966L51.5916 37.3352C52.1939 37.4744 52.6428 37.6889 52.9382 37.9787C53.2337 38.2685 53.3814 38.6449 53.3814 39.108C53.3814 39.5 53.2678 39.8494 53.0405 40.1562C52.8161 40.4602 52.5021 40.6989 52.0987 40.8722C51.6982 41.0455 51.2337 41.1321 50.7053 41.1321C49.9723 41.1321 49.3743 40.9759 48.9112 40.6634C48.4482 40.348 48.1641 39.9006 48.0589 39.321L49.2905 39.1335C49.3672 39.4545 49.5249 39.6974 49.7635 39.8622C50.0021 40.0241 50.3132 40.1051 50.6967 40.1051C51.1143 40.1051 51.4482 40.0185 51.6982 39.8452C51.9482 39.669 52.0732 39.4545 52.0732 39.2017C52.0732 38.9972 51.9964 38.8253 51.843 38.6861C51.6925 38.5469 51.4609 38.4418 51.1484 38.3707L50.0405 38.1278C49.4297 37.9886 48.978 37.767 48.6854 37.4631C48.3956 37.1591 48.2507 36.7741 48.2507 36.3082C48.2507 35.9219 48.3587 35.5838 48.5746 35.294C48.7905 35.0043 49.0888 34.7784 49.4695 34.6165C49.8501 34.4517 50.2862 34.3693 50.7777 34.3693C51.4851 34.3693 52.0419 34.5227 52.4482 34.8295C52.8544 35.1335 53.1229 35.5412 53.2536 36.0526ZM59.6871 36.0526L58.5323 36.2571C58.484 36.1094 58.4073 35.9687 58.3022 35.8352C58.1999 35.7017 58.0607 35.5923 57.8846 35.5071C57.7085 35.4219 57.4883 35.3793 57.2241 35.3793C56.8633 35.3793 56.5621 35.4602 56.3207 35.6222C56.0792 35.7812 55.9585 35.9872 55.9585 36.2401C55.9585 36.4588 56.0394 36.6349 56.2013 36.7685C56.3633 36.902 56.6246 37.0114 56.9854 37.0966L58.0252 37.3352C58.6275 37.4744 59.0763 37.6889 59.3718 37.9787C59.6673 38.2685 59.815 38.6449 59.815 39.108C59.815 39.5 59.7013 39.8494 59.4741 40.1562C59.2496 40.4602 58.9357 40.6989 58.5323 40.8722C58.1317 41.0455 57.6673 41.1321 57.1388 41.1321C56.4059 41.1321 55.8079 40.9759 55.3448 40.6634C54.8817 40.348 54.5977 39.9006 54.4925 39.321L55.7241 39.1335C55.8008 39.4545 55.9585 39.6974 56.1971 39.8622C56.4357 40.0241 56.7468 40.1051 57.1303 40.1051C57.5479 40.1051 57.8817 40.0185 58.1317 39.8452C58.3817 39.669 58.5067 39.4545 58.5067 39.2017C58.5067 38.9972 58.43 38.8253 58.2766 38.6861C58.1261 38.5469 57.8945 38.4418 57.582 38.3707L56.4741 38.1278C55.8633 37.9886 55.4116 37.767 55.119 37.4631C54.8292 37.1591 54.6843 36.7741 54.6843 36.3082C54.6843 35.9219 54.7923 35.5838 55.0082 35.294C55.2241 35.0043 55.5224 34.7784 55.9031 34.6165C56.2837 34.4517 56.7198 34.3693 57.2113 34.3693C57.9187 34.3693 58.4755 34.5227 58.8817 34.8295C59.288 35.1335 59.5565 35.5412 59.6871 36.0526ZM61.2159 41V34.4545H62.4901V41H61.2159ZM61.8594 33.4446C61.6378 33.4446 61.4474 33.3707 61.2884 33.223C61.1321 33.0724 61.054 32.8935 61.054 32.6861C61.054 32.4759 61.1321 32.2969 61.2884 32.1491C61.4474 31.9986 61.6378 31.9233 61.8594 31.9233C62.081 31.9233 62.2699 31.9986 62.4261 32.1491C62.5852 32.2969 62.6648 32.4759 62.6648 32.6861C62.6648 32.8935 62.5852 33.0724 62.4261 33.223C62.2699 33.3707 62.081 33.4446 61.8594 33.4446ZM66.9613 41.1321C66.3477 41.1321 65.8121 40.9915 65.3548 40.7102C64.8974 40.429 64.5423 40.0355 64.2894 39.5298C64.0366 39.0241 63.9102 38.4332 63.9102 37.7571C63.9102 37.0781 64.0366 36.4844 64.2894 35.9759C64.5423 35.4673 64.8974 35.0724 65.3548 34.7912C65.8121 34.5099 66.3477 34.3693 66.9613 34.3693C67.5749 34.3693 68.1104 34.5099 68.5678 34.7912C69.0252 35.0724 69.3803 35.4673 69.6332 35.9759C69.886 36.4844 70.0124 37.0781 70.0124 37.7571C70.0124 38.4332 69.886 39.0241 69.6332 39.5298C69.3803 40.0355 69.0252 40.429 68.5678 40.7102C68.1104 40.9915 67.5749 41.1321 66.9613 41.1321ZM66.9656 40.0625C67.3633 40.0625 67.6928 39.9574 67.9542 39.7472C68.2156 39.5369 68.4087 39.2571 68.5337 38.9077C68.6616 38.5582 68.7255 38.1733 68.7255 37.7528C68.7255 37.3352 68.6616 36.9517 68.5337 36.6023C68.4087 36.25 68.2156 35.9673 67.9542 35.7543C67.6928 35.5412 67.3633 35.4347 66.9656 35.4347C66.565 35.4347 66.2326 35.5412 65.9684 35.7543C65.707 35.9673 65.5124 36.25 65.3846 36.6023C65.2596 36.9517 65.1971 37.3352 65.1971 37.7528C65.1971 38.1733 65.2596 38.5582 65.3846 38.9077C65.5124 39.2571 65.707 39.5369 65.9684 39.7472C66.2326 39.9574 66.565 40.0625 66.9656 40.0625ZM72.7088 37.1136V41H71.4347V34.4545H72.6577V35.5199H72.7386C72.8892 35.1733 73.125 34.8949 73.446 34.6847C73.7699 34.4744 74.1776 34.3693 74.669 34.3693C75.1151 34.3693 75.5057 34.4631 75.8409 34.6506C76.1761 34.8352 76.4361 35.1108 76.6207 35.4773C76.8054 35.8437 76.8977 36.2969 76.8977 36.8366V41H75.6236V36.9901C75.6236 36.5156 75.5 36.1449 75.2528 35.8778C75.0057 35.608 74.6662 35.473 74.2344 35.473C73.9389 35.473 73.6761 35.5369 73.446 35.6648C73.2188 35.7926 73.0384 35.9801 72.9048 36.2273C72.7741 36.4716 72.7088 36.767 72.7088 37.1136ZM80.5114 41.1449C80.0966 41.1449 79.7216 41.0682 79.3864 40.9148C79.0511 40.7585 78.7855 40.5327 78.5895 40.2372C78.3963 39.9418 78.2997 39.5795 78.2997 39.1506C78.2997 38.7812 78.3707 38.4773 78.5128 38.2386C78.6548 38 78.8466 37.8111 79.0881 37.6719C79.3295 37.5327 79.5994 37.4276 79.8977 37.3565C80.196 37.2855 80.5 37.2315 80.8097 37.1946C81.2017 37.1491 81.5199 37.1122 81.7642 37.0838C82.0085 37.0526 82.1861 37.0028 82.2969 36.9347C82.4077 36.8665 82.4631 36.7557 82.4631 36.6023V36.5724C82.4631 36.2003 82.358 35.9119 82.1477 35.7074C81.9403 35.5028 81.6307 35.4006 81.2188 35.4006C80.7898 35.4006 80.4517 35.4957 80.2045 35.6861C79.9602 35.8736 79.7912 36.0824 79.6974 36.3125L78.5 36.0398C78.642 35.642 78.8494 35.321 79.1222 35.0767C79.3977 34.8295 79.7145 34.6506 80.0724 34.5398C80.4304 34.4261 80.8068 34.3693 81.2017 34.3693C81.4631 34.3693 81.7401 34.4006 82.0327 34.4631C82.3281 34.5227 82.6037 34.6335 82.8594 34.7955C83.1179 34.9574 83.3295 35.1889 83.4943 35.4901C83.6591 35.7884 83.7415 36.1761 83.7415 36.6534V41H82.4972V40.1051H82.446C82.3636 40.2699 82.2401 40.4318 82.0753 40.5909C81.9105 40.75 81.6989 40.8821 81.4403 40.9872C81.1818 41.0923 80.8722 41.1449 80.5114 41.1449ZM80.7884 40.1222C81.1406 40.1222 81.4418 40.0526 81.6918 39.9134C81.9446 39.7741 82.1364 39.5923 82.267 39.3679C82.4006 39.1406 82.4673 38.8977 82.4673 38.6392V37.7955C82.4219 37.8409 82.3338 37.8835 82.2031 37.9233C82.0753 37.9602 81.929 37.9929 81.7642 38.0213C81.5994 38.0469 81.4389 38.071 81.2827 38.0938C81.1264 38.1136 80.9957 38.1307 80.8906 38.1449C80.6435 38.1761 80.4176 38.2287 80.2131 38.3026C80.0114 38.3764 79.8494 38.483 79.7273 38.6222C79.608 38.7585 79.5483 38.9403 79.5483 39.1676C79.5483 39.483 79.6648 39.7216 79.8977 39.8835C80.1307 40.0426 80.4276 40.1222 80.7884 40.1222ZM86.7127 32.2727V41H85.4386V32.2727H86.7127ZM91.2745 33.4062V32.2727H98.0288V33.4062H95.3058V41H93.9933V33.4062H91.2745ZM98.7393 41V34.4545H99.9709V35.4943H100.039C100.158 35.142 100.369 34.8651 100.67 34.6634C100.974 34.4588 101.317 34.3565 101.701 34.3565C101.781 34.3565 101.874 34.3594 101.982 34.3651C102.093 34.3707 102.18 34.3778 102.242 34.3864V35.6051C102.191 35.5909 102.1 35.5753 101.969 35.5582C101.839 35.5384 101.708 35.5284 101.577 35.5284C101.276 35.5284 101.008 35.5923 100.772 35.7202C100.539 35.8452 100.354 36.0199 100.218 36.2443C100.082 36.4659 100.013 36.7187 100.013 37.0028V41H98.7393ZM105.191 41.1449C104.776 41.1449 104.401 41.0682 104.066 40.9148C103.731 40.7585 103.465 40.5327 103.269 40.2372C103.076 39.9418 102.979 39.5795 102.979 39.1506C102.979 38.7812 103.05 38.4773 103.192 38.2386C103.335 38 103.526 37.8111 103.768 37.6719C104.009 37.5327 104.279 37.4276 104.577 37.3565C104.876 37.2855 105.18 37.2315 105.489 37.1946C105.881 37.1491 106.2 37.1122 106.444 37.0838C106.688 37.0526 106.866 37.0028 106.977 36.9347C107.087 36.8665 107.143 36.7557 107.143 36.6023V36.5724C107.143 36.2003 107.038 35.9119 106.827 35.7074C106.62 35.5028 106.31 35.4006 105.898 35.4006C105.469 35.4006 105.131 35.4957 104.884 35.6861C104.64 35.8736 104.471 36.0824 104.377 36.3125L103.18 36.0398C103.322 35.642 103.529 35.321 103.802 35.0767C104.077 34.8295 104.394 34.6506 104.752 34.5398C105.11 34.4261 105.487 34.3693 105.881 34.3693C106.143 34.3693 106.42 34.4006 106.712 34.4631C107.008 34.5227 107.283 34.6335 107.539 34.7955C107.798 34.9574 108.009 35.1889 108.174 35.4901C108.339 35.7884 108.421 36.1761 108.421 36.6534V41H107.177V40.1051H107.126C107.043 40.2699 106.92 40.4318 106.755 40.5909C106.59 40.75 106.379 40.8821 106.12 40.9872C105.862 41.0923 105.552 41.1449 105.191 41.1449ZM105.468 40.1222C105.82 40.1222 106.121 40.0526 106.371 39.9134C106.624 39.7741 106.816 39.5923 106.947 39.3679C107.08 39.1406 107.147 38.8977 107.147 38.6392V37.7955C107.102 37.8409 107.013 37.8835 106.883 37.9233C106.755 37.9602 106.609 37.9929 106.444 38.0213C106.279 38.0469 106.119 38.071 105.962 38.0938C105.806 38.1136 105.675 38.1307 105.57 38.1449C105.323 38.1761 105.097 38.2287 104.893 38.3026C104.691 38.3764 104.529 38.483 104.407 38.6222C104.288 38.7585 104.228 38.9403 104.228 39.1676C104.228 39.483 104.344 39.7216 104.577 39.8835C104.81 40.0426 105.107 40.1222 105.468 40.1222ZM110.118 41V34.4545H111.392V41H110.118ZM110.762 33.4446C110.54 33.4446 110.35 33.3707 110.191 33.223C110.034 33.0724 109.956 32.8935 109.956 32.6861C109.956 32.4759 110.034 32.2969 110.191 32.1491C110.35 31.9986 110.54 31.9233 110.762 31.9233C110.983 31.9233 111.172 31.9986 111.328 32.1491C111.488 32.2969 111.567 32.4759 111.567 32.6861C111.567 32.8935 111.488 33.0724 111.328 33.223C111.172 33.3707 110.983 33.4446 110.762 33.4446ZM114.381 37.1136V41H113.107V34.4545H114.33V35.5199H114.411C114.561 35.1733 114.797 34.8949 115.118 34.6847C115.442 34.4744 115.849 34.3693 116.341 34.3693C116.787 34.3693 117.178 34.4631 117.513 34.6506C117.848 34.8352 118.108 35.1108 118.293 35.4773C118.477 35.8437 118.57 36.2969 118.57 36.8366V41H117.295V36.9901C117.295 36.5156 117.172 36.1449 116.925 35.8778C116.678 35.608 116.338 35.473 115.906 35.473C115.611 35.473 115.348 35.5369 115.118 35.6648C114.891 35.7926 114.71 35.9801 114.577 36.2273C114.446 36.4716 114.381 36.767 114.381 37.1136ZM120.278 41V34.4545H121.553V41H120.278ZM120.922 33.4446C120.7 33.4446 120.51 33.3707 120.351 33.223C120.195 33.0724 120.116 32.8935 120.116 32.6861C120.116 32.4759 120.195 32.2969 120.351 32.1491C120.51 31.9986 120.7 31.9233 120.922 31.9233C121.143 31.9233 121.332 31.9986 121.489 32.1491C121.648 32.2969 121.727 32.4759 121.727 32.6861C121.727 32.8935 121.648 33.0724 121.489 33.223C121.332 33.3707 121.143 33.4446 120.922 33.4446ZM124.541 37.1136V41H123.267V34.4545H124.49V35.5199H124.571C124.721 35.1733 124.957 34.8949 125.278 34.6847C125.602 34.4744 126.01 34.3693 126.501 34.3693C126.947 34.3693 127.338 34.4631 127.673 34.6506C128.008 34.8352 128.268 35.1108 128.453 35.4773C128.637 35.8437 128.73 36.2969 128.73 36.8366V41H127.456V36.9901C127.456 36.5156 127.332 36.1449 127.085 35.8778C126.838 35.608 126.498 35.473 126.066 35.473C125.771 35.473 125.508 35.5369 125.278 35.6648C125.051 35.7926 124.87 35.9801 124.737 36.2273C124.606 36.4716 124.541 36.767 124.541 37.1136ZM133.183 43.5909C132.663 43.5909 132.216 43.5227 131.841 43.3864C131.468 43.25 131.164 43.0696 130.929 42.8452C130.693 42.6207 130.517 42.375 130.4 42.108L131.495 41.6562C131.572 41.7812 131.674 41.9134 131.802 42.0526C131.933 42.1946 132.109 42.3153 132.331 42.4148C132.555 42.5142 132.843 42.5639 133.196 42.5639C133.679 42.5639 134.078 42.446 134.393 42.2102C134.708 41.9773 134.866 41.6051 134.866 41.0938V39.8068H134.785C134.708 39.946 134.598 40.1009 134.453 40.2713C134.311 40.4418 134.115 40.5895 133.865 40.7145C133.615 40.8395 133.289 40.902 132.889 40.902C132.372 40.902 131.906 40.7812 131.491 40.5398C131.079 40.2955 130.752 39.9361 130.511 39.4616C130.272 38.9844 130.153 38.3977 130.153 37.7017C130.153 37.0057 130.271 36.4091 130.507 35.9119C130.745 35.4148 131.072 35.0341 131.487 34.7699C131.902 34.5028 132.372 34.3693 132.897 34.3693C133.304 34.3693 133.632 34.4375 133.882 34.5739C134.132 34.7074 134.326 34.8636 134.466 35.0426C134.608 35.2216 134.717 35.3793 134.794 35.5156H134.887V34.4545H136.136V41.1449C136.136 41.7074 136.005 42.169 135.744 42.5298C135.483 42.8906 135.129 43.1577 134.683 43.331C134.24 43.5043 133.74 43.5909 133.183 43.5909ZM133.17 39.8452C133.537 39.8452 133.846 39.7599 134.099 39.5895C134.355 39.4162 134.548 39.169 134.679 38.848C134.812 38.5241 134.879 38.1364 134.879 37.6847C134.879 37.2443 134.814 36.8565 134.683 36.5213C134.552 36.1861 134.36 35.9247 134.108 35.7372C133.855 35.5469 133.542 35.4517 133.17 35.4517C132.787 35.4517 132.467 35.5511 132.211 35.75C131.956 35.946 131.762 36.2131 131.632 36.5511C131.504 36.8892 131.44 37.267 131.44 37.6847C131.44 38.1136 131.505 38.4901 131.636 38.8139C131.767 39.1378 131.96 39.3906 132.216 39.5724C132.474 39.7543 132.792 39.8452 133.17 39.8452ZM148.371 35.1108H147.042C146.991 34.8267 146.896 34.5767 146.756 34.3608C146.617 34.1449 146.447 33.9616 146.245 33.8111C146.043 33.6605 145.817 33.5469 145.567 33.4702C145.32 33.3935 145.058 33.3551 144.779 33.3551C144.276 33.3551 143.826 33.4815 143.428 33.7344C143.033 33.9872 142.721 34.358 142.491 34.8466C142.263 35.3352 142.15 35.9318 142.15 36.6364C142.15 37.3466 142.263 37.946 142.491 38.4347C142.721 38.9233 143.035 39.2926 143.433 39.5426C143.83 39.7926 144.278 39.9176 144.775 39.9176C145.05 39.9176 145.312 39.8807 145.559 39.8068C145.809 39.7301 146.035 39.6179 146.237 39.4702C146.438 39.3224 146.609 39.142 146.748 38.929C146.89 38.7131 146.988 38.4659 147.042 38.1875L148.371 38.1918C148.3 38.6207 148.163 39.0156 147.958 39.3764C147.756 39.7344 147.496 40.044 147.178 40.3054C146.863 40.5639 146.502 40.7642 146.096 40.9062C145.69 41.0483 145.246 41.1193 144.766 41.1193C144.011 41.1193 143.337 40.9403 142.746 40.5824C142.156 40.2216 141.69 39.706 141.349 39.0355C141.011 38.3651 140.842 37.5653 140.842 36.6364C140.842 35.7045 141.012 34.9048 141.353 34.2372C141.694 33.5668 142.16 33.0526 142.751 32.6946C143.342 32.3338 144.013 32.1534 144.766 32.1534C145.229 32.1534 145.661 32.2202 146.062 32.3537C146.465 32.4844 146.827 32.6776 147.148 32.9332C147.469 33.1861 147.735 33.4957 147.945 33.8622C148.156 34.2259 148.298 34.642 148.371 35.1108ZM151.75 41.1449C151.335 41.1449 150.96 41.0682 150.625 40.9148C150.289 40.7585 150.024 40.5327 149.828 40.2372C149.635 39.9418 149.538 39.5795 149.538 39.1506C149.538 38.7812 149.609 38.4773 149.751 38.2386C149.893 38 150.085 37.8111 150.326 37.6719C150.568 37.5327 150.838 37.4276 151.136 37.3565C151.434 37.2855 151.738 37.2315 152.048 37.1946C152.44 37.1491 152.758 37.1122 153.002 37.0838C153.247 37.0526 153.424 37.0028 153.535 36.9347C153.646 36.8665 153.701 36.7557 153.701 36.6023V36.5724C153.701 36.2003 153.596 35.9119 153.386 35.7074C153.179 35.5028 152.869 35.4006 152.457 35.4006C152.028 35.4006 151.69 35.4957 151.443 35.6861C151.199 35.8736 151.029 36.0824 150.936 36.3125L149.738 36.0398C149.88 35.642 150.088 35.321 150.36 35.0767C150.636 34.8295 150.953 34.6506 151.311 34.5398C151.669 34.4261 152.045 34.3693 152.44 34.3693C152.701 34.3693 152.978 34.4006 153.271 34.4631C153.566 34.5227 153.842 34.6335 154.098 34.7955C154.356 34.9574 154.568 35.1889 154.733 35.4901C154.897 35.7884 154.98 36.1761 154.98 36.6534V41H153.735V40.1051H153.684C153.602 40.2699 153.478 40.4318 153.314 40.5909C153.149 40.75 152.937 40.8821 152.679 40.9872C152.42 41.0923 152.11 41.1449 151.75 41.1449ZM152.027 40.1222C152.379 40.1222 152.68 40.0526 152.93 39.9134C153.183 39.7741 153.375 39.5923 153.505 39.3679C153.639 39.1406 153.706 38.8977 153.706 38.6392V37.7955C153.66 37.8409 153.572 37.8835 153.441 37.9233C153.314 37.9602 153.167 37.9929 153.002 38.0213C152.838 38.0469 152.677 38.071 152.521 38.0938C152.365 38.1136 152.234 38.1307 152.129 38.1449C151.882 38.1761 151.656 38.2287 151.451 38.3026C151.25 38.3764 151.088 38.483 150.966 38.6222C150.846 38.7585 150.787 38.9403 150.787 39.1676C150.787 39.483 150.903 39.7216 151.136 39.8835C151.369 40.0426 151.666 40.1222 152.027 40.1222ZM156.677 41V34.4545H157.9V35.5199H157.981C158.117 35.1591 158.34 34.8778 158.65 34.6761C158.96 34.4716 159.33 34.3693 159.762 34.3693C160.2 34.3693 160.566 34.4716 160.862 34.6761C161.16 34.8807 161.38 35.1619 161.522 35.5199H161.59C161.746 35.1705 161.995 34.892 162.336 34.6847C162.677 34.4744 163.083 34.3693 163.555 34.3693C164.148 34.3693 164.633 34.5554 165.008 34.9276C165.386 35.2997 165.575 35.8608 165.575 36.6108V41H164.3V36.7301C164.3 36.2869 164.18 35.9659 163.938 35.767C163.697 35.5682 163.408 35.4688 163.073 35.4688C162.658 35.4688 162.336 35.5966 162.106 35.8523C161.876 36.1051 161.761 36.4304 161.761 36.8281V41H160.491V36.6491C160.491 36.294 160.38 36.0085 160.158 35.7926C159.937 35.5767 159.648 35.4688 159.293 35.4688C159.052 35.4688 158.829 35.5327 158.624 35.6605C158.423 35.7855 158.259 35.9602 158.134 36.1847C158.012 36.4091 157.951 36.669 157.951 36.9645V41H156.677ZM167.282 43.4545V34.4545H168.527V35.5156H168.633C168.707 35.3793 168.814 35.2216 168.953 35.0426C169.092 34.8636 169.285 34.7074 169.532 34.5739C169.779 34.4375 170.106 34.3693 170.512 34.3693C171.041 34.3693 171.512 34.5028 171.927 34.7699C172.342 35.0369 172.667 35.4219 172.903 35.9247C173.142 36.4276 173.261 37.0327 173.261 37.7401C173.261 38.4474 173.143 39.054 172.907 39.5597C172.672 40.0625 172.348 40.4503 171.936 40.723C171.524 40.9929 171.054 41.1278 170.525 41.1278C170.127 41.1278 169.802 41.0611 169.549 40.9276C169.299 40.794 169.103 40.6378 168.961 40.4588C168.819 40.2798 168.71 40.1207 168.633 39.9815H168.556V43.4545H167.282ZM168.531 37.7273C168.531 38.1875 168.598 38.5909 168.731 38.9375C168.865 39.2841 169.058 39.5554 169.311 39.7514C169.564 39.9446 169.873 40.0412 170.24 40.0412C170.62 40.0412 170.939 39.9403 171.194 39.7386C171.45 39.5341 171.643 39.2571 171.774 38.9077C171.907 38.5582 171.974 38.1648 171.974 37.7273C171.974 37.2955 171.909 36.9077 171.778 36.5639C171.65 36.2202 171.457 35.9489 171.199 35.75C170.943 35.5511 170.623 35.4517 170.24 35.4517C169.87 35.4517 169.558 35.5469 169.302 35.7372C169.049 35.9276 168.858 36.1932 168.727 36.5341C168.596 36.875 168.531 37.2727 168.531 37.7273ZM178.835 38.2855V34.4545H180.113V41H178.86V39.8665H178.792C178.642 40.2159 178.4 40.5071 178.068 40.7401C177.738 40.9702 177.328 41.0852 176.836 41.0852C176.416 41.0852 176.044 40.9929 175.72 40.8082C175.399 40.6207 175.146 40.3438 174.961 39.9773C174.779 39.6108 174.689 39.1577 174.689 38.6179V34.4545H175.963V38.4645C175.963 38.9105 176.086 39.2656 176.333 39.5298C176.581 39.794 176.902 39.9261 177.297 39.9261C177.535 39.9261 177.772 39.8665 178.008 39.7472C178.247 39.6278 178.444 39.4474 178.6 39.206C178.76 38.9645 178.838 38.6577 178.835 38.2855ZM186.73 36.0526L185.575 36.2571C185.527 36.1094 185.45 35.9687 185.345 35.8352C185.243 35.7017 185.104 35.5923 184.928 35.5071C184.751 35.4219 184.531 35.3793 184.267 35.3793C183.906 35.3793 183.605 35.4602 183.364 35.6222C183.122 35.7812 183.001 35.9872 183.001 36.2401C183.001 36.4588 183.082 36.6349 183.244 36.7685C183.406 36.902 183.668 37.0114 184.028 37.0966L185.068 37.3352C185.67 37.4744 186.119 37.6889 186.415 37.9787C186.71 38.2685 186.858 38.6449 186.858 39.108C186.858 39.5 186.744 39.8494 186.517 40.1562C186.293 40.4602 185.979 40.6989 185.575 40.8722C185.175 41.0455 184.71 41.1321 184.182 41.1321C183.449 41.1321 182.851 40.9759 182.388 40.6634C181.925 40.348 181.641 39.9006 181.536 39.321L182.767 39.1335C182.844 39.4545 183.001 39.6974 183.24 39.8622C183.479 40.0241 183.79 40.1051 184.173 40.1051C184.591 40.1051 184.925 40.0185 185.175 39.8452C185.425 39.669 185.55 39.4545 185.55 39.2017C185.55 38.9972 185.473 38.8253 185.32 38.6861C185.169 38.5469 184.938 38.4418 184.625 38.3707L183.517 38.1278C182.906 37.9886 182.455 37.767 182.162 37.4631C181.872 37.1591 181.727 36.7741 181.727 36.3082C181.727 35.9219 181.835 35.5838 182.051 35.294C182.267 35.0043 182.565 34.7784 182.946 34.6165C183.327 34.4517 183.763 34.3693 184.254 34.3693C184.962 34.3693 185.518 34.5227 185.925 34.8295C186.331 35.1335 186.599 35.5412 186.73 36.0526Z" fill="black"/>
<defs>
<clipPath id="clip0_256_2991">
<rect width="205" height="27" fill="white"/>
</clipPath>
</defs>
</svg>
