<svg id="Capa_1" data-name="Capa 1" xmlns="http://www.w3.org/2000/svg" viewBox="0 0 75.87 67.83"><defs><style>.cls-1{fill-rule:evenodd;}</style></defs><title>BIC-PLANTILLA-2024</title><path class="cls-1" d="M36.51,78.57Q36.12,67.28,35.74,56c-3.57.48-5.2-.62-5.77-4.15a47.11,47.11,0,0,1,1.77-22.2A4.05,4.05,0,0,0,31.81,27a48.3,48.3,0,0,0-3.22-6.63c-1.44-2.36-3.92-2.63-6.44-2.53a5.7,5.7,0,0,1-2,.09c-.67-.25-1.62-.86-1.67-1.39a2.18,2.18,0,0,1,1.3-1.73c6.94-1.22,10.21-.1,13.16,5.79.57,1.15,1,2.38,1.34,3.22,1.06.32,2.21.33,2.54.85s-.09,1.59-.28,2.4c-.24,1-.87,2-.81,3,.15,2.63.63,5.25.87,7.89s.35,5.24.74,7.91c.46-1.83.9-3.67,1.4-5.5,1.14-4.22,4.8-5.37,8.13-2.52,1.1.94,2,2.08,3.4,3.51.93-1.74,1.79-3.26,2.58-4.82.43-.85.66-1.81,1.15-2.62,1-1.56,2.42-1.8,3.62-.44a37.13,37.13,0,0,1,2.2,3.55,33.4,33.4,0,0,0,3.92,5.18c1.49,1.44,3.59,1.76,5.82,1.51-.16-3.85,2.51-5.3,5.58-6.09s3-2.25,2.76-4.44c-.35-3.86-2.11-7.19-4-10.5a39.2,39.2,0,0,1-2.8-6.11,7.49,7.49,0,0,1-.17-3.5,2.56,2.56,0,0,1,4-1.95c5.89,3.49,11.61,7.26,16.41,12.21,4.59,4.74,3.77,8.4-2.27,10.9-1.45.59-2.9,1.21-4.5,1.88L85.81,39l-.23.1-1.53-2.6c-1.14.44-2.26.8-3.31,1.3a2.24,2.24,0,0,0-.88,1.09c-1.1,2.52-2,5.11-3.27,7.58s-3.39,2.82-5.11.47a3.51,3.51,0,0,0-3.19-1.49,11.06,11.06,0,0,1-9.63-5.9c-.79-1.35-1.54-2.73-2.54-4.52-.63,1.45-1,2.53-1.55,3.55a22,22,0,0,1-2.31,4.08c-1.41,1.72-3.32,1.56-4.76-.16a30.47,30.47,0,0,0-2-2.49c-1.89-1.84-3.85-1.38-4.62,1.12s-1.28,5.25-2.12,7.82C36,57.31,37.12,66,36.63,74.54c-.08,1.34,0,2.69,0,4ZM83.85,34.78c.65-.19,1.08-.27,1.49-.44,1.46-.59,3-1.1,4.35-1.83,3.24-1.68,4-3.86,1.66-6.67A68.45,68.45,0,0,0,83.4,18.1a41.24,41.24,0,0,0-5-3.24C78,22.37,81.81,28.26,83.85,34.78ZM34.09,36.19l-.67,0c-1.14,5.1-1.86,10.24-1.08,15.47.11.72,1,1.32,1.48,2,.55-.68,1.62-1.39,1.58-2C35.08,46.44,34.56,41.31,34.09,36.19Zm49.25-1.14c-1.43-3.12-2.77-6-4-8.68.44,3,.91,6.25,1.39,9.54Zm-9.07,11.8,2.85-5.73L76.85,41l-4.21,3.77Zm1.66-6.71c-2.81.41-3.64,1.19-3.6,3.22Z" transform="translate(-18.47 -10.75)"/></svg>