<svg id="Capa_1" data-name="Capa 1" xmlns="http://www.w3.org/2000/svg" viewBox="0 0 68.73 68.67"><defs><style>.cls-1{opacity:0.2;}.cls-2{fill:#1d1d1b;}</style></defs><title>trainning</title><g class="cls-1"><path class="cls-2" d="M13.37,7.09l.77-.59,2.08,2.66a3.51,3.51,0,0,1,.59,1,1.1,1.1,0,0,1,0,.67,1.34,1.34,0,0,1-.44.58,1.77,1.77,0,0,1-1.59.3l.15-.94a1.72,1.72,0,0,0,.53,0,.68.68,0,0,0,.3-.12.25.25,0,0,0,.11-.25,1.64,1.64,0,0,0-.3-.5Z" transform="translate(0 0)"/><path class="cls-2" d="M15.47,5.54l.84-.49L18,7.89a1.62,1.62,0,0,0,.37.48.7.7,0,0,0,.35.12A.87.87,0,0,0,19.43,8a.59.59,0,0,0,.07-.38A2.36,2.36,0,0,0,19.21,7L17.6,4.29l.84-.49L20,6.41a4.92,4.92,0,0,1,.47,1,1.51,1.51,0,0,1,0,.67,1.61,1.61,0,0,1-.28.64,2,2,0,0,1-1.53.76,1.48,1.48,0,0,1-.82-.26,3.26,3.26,0,0,1-.81-1Z" transform="translate(0 0)"/><path class="cls-2" d="M21.46,2.45l.91-.36,3.67,4-.94.36-.75-.83-1.93.75V7.54l-.94.36Zm.95,1.07V5.4l1.27-.49Z" transform="translate(0 0)"/><path class="cls-2" d="M25.58,1l.91-.19,2.8,2.86L28.63.41l.95-.19,1,5-.91.18L26.88,2.54l.65,3.28-1,.19Z" transform="translate(0 0)"/><path class="cls-2" d="M31.56,5.13,31.33.05l.8,0a4.26,4.26,0,0,1,1,0,1.4,1.4,0,0,1,.75.42,1.15,1.15,0,0,1,.3.76,1,1,0,0,1-.1.53,1.32,1.32,0,0,1-.37.47,1.66,1.66,0,0,1,.7.51,1.46,1.46,0,0,1,.25.76,1.48,1.48,0,0,1-.19.8,1.45,1.45,0,0,1-.55.55,2.11,2.11,0,0,1-.95.22ZM32.34.92l0,1.08h.21a.75.75,0,0,0,.52-.18.49.49,0,0,0,.15-.41A.43.43,0,0,0,33.09,1a.73.73,0,0,0-.5-.12Zm.09,1.94.06,1.3h.24a1.46,1.46,0,0,0,.8-.19.48.48,0,0,0,.19-.45A.62.62,0,0,0,33.45,3a1.37,1.37,0,0,0-.82-.15Z" transform="translate(0 0)"/><path class="cls-2" d="M37.58.09l1,.11L40,5.47l-1-.11-.28-1.09-2.06-.22-.53,1-1-.11Zm.35,1.4-.87,1.66,1.35.15Z" transform="translate(0 0)"/><path class="cls-2" d="M41.88.74l1,.27A3.25,3.25,0,0,1,44,1.46a1.21,1.21,0,0,1,.43.63,1.57,1.57,0,0,1,0,.86A1.49,1.49,0,0,1,44,3.7a1.46,1.46,0,0,1-.83.3l.58,2.5-1-.27-.55-2.38-.08,0L41.5,5.91l-.93-.25Zm.42,2.17.29.08a1.19,1.19,0,0,0,.65,0,.46.46,0,0,0,.27-.34.47.47,0,0,0,0-.31.48.48,0,0,0-.17-.23,1.93,1.93,0,0,0-.5-.19l-.26-.07Z" transform="translate(0 0)"/><path class="cls-2" d="M46.06,2l.9.33-1.8,4.77-.9-.34Z" transform="translate(0 0)"/><path class="cls-2" d="M50.4,4.66l-.92.25A1,1,0,0,0,49,4.1a.46.46,0,0,0-.32,0,.29.29,0,0,0-.21.15.38.38,0,0,0,0,.26,6,6,0,0,0,.35.9c.19.44.31.71.35.82a1.86,1.86,0,0,1,.12.69,1.26,1.26,0,0,1-.15.59,1.34,1.34,0,0,1-.84.74,1.56,1.56,0,0,1-1.2-.13,1.72,1.72,0,0,1-.73-.65,2.1,2.1,0,0,1-.25-1.06l.94-.08c0,.51.18.83.47,1a.57.57,0,0,0,.44.06.48.48,0,0,0,.3-.23.64.64,0,0,0,0-.37A3.89,3.89,0,0,0,48,6a5.89,5.89,0,0,1-.51-1.41,1.38,1.38,0,0,1,.11-.77,1.19,1.19,0,0,1,.76-.64,1.36,1.36,0,0,1,1.06.1,1.65,1.65,0,0,1,.58.47A2.7,2.7,0,0,1,50.4,4.66Z" transform="translate(0 0)"/><path class="cls-2" d="M51.53,4.5,53.91,6l-.52.81-.78-.5L50.4,9.81l-.83-.53,2.21-3.49L51,5.3Z" transform="translate(0 0)"/><path class="cls-2" d="M56.08,7.67l.75.63-1.77,5.16-.78-.65.37-1.06-1.59-1.33-1,.53-.77-.65ZM55.59,9,54,9.92l1,.88Z" transform="translate(0 0)"/><path class="cls-2" d="M64,18.46l-.9-.23a2.09,2.09,0,0,0-.22-1.7A1.71,1.71,0,0,0,60.44,16a1.71,1.71,0,0,0-.64.67,1.51,1.51,0,0,0-.19.86,1.91,1.91,0,0,0,.29.88,1.88,1.88,0,0,0,.55.57,2.78,2.78,0,0,0,.9.34l-.23.92a3.77,3.77,0,0,1-1.22-.49,3,3,0,0,1-.79-.85,2.64,2.64,0,0,1-.41-2,2.6,2.6,0,0,1,1.22-1.67,2.7,2.7,0,0,1,1.33-.44,2.56,2.56,0,0,1,1.33.32,2.9,2.9,0,0,1,1.05,1,2.94,2.94,0,0,1,.42,1.16A2.84,2.84,0,0,1,64,18.46Z" transform="translate(0 0)"/><path class="cls-2" d="M66.43,21.59a2.51,2.51,0,0,1,0,2A2.62,2.62,0,0,1,64.9,25a2.63,2.63,0,0,1-3.44-1.47,2.51,2.51,0,0,1,0-2.06,2.69,2.69,0,0,1,4.11-1A2.59,2.59,0,0,1,66.43,21.59Zm-.88.34a1.65,1.65,0,0,0-.9-.93,1.73,1.73,0,0,0-1.34,0,1.64,1.64,0,0,0-1,1.05,1.75,1.75,0,0,0,0,1.15,1.58,1.58,0,0,0,.9.91,1.83,1.83,0,0,0,2.29-.91A1.61,1.61,0,0,0,65.55,21.93Z" transform="translate(0 0)"/><path class="cls-2" d="M67.62,25.58,68.18,28l-.92.21-.35-1.52-.9.2.35,1.53-.91.2-.34-1.52-2.24.51-.21-.94Z" transform="translate(0 0)"/><path class="cls-2" d="M68.38,29.33l.29,2.51-.94.11-.18-1.55-.91.1.17,1.55-.92.11-.18-1.56-2.28.26-.1-.95Z" transform="translate(0 0)"/><path class="cls-2" d="M68.73,33.16v2.78h-1V34.12h-.92v1.82h-.93V34.11H64.59v1.81h-.95V33.14Z" transform="translate(0 0)"/><path class="cls-2" d="M68.62,37.31l-.34,2.76L67.34,40l.22-1.8L66.65,38l-.23,1.81-.92-.12.22-1.8-1.33-.17-.22,1.81-.94-.12.34-2.76Z" transform="translate(0 0)"/><path class="cls-2" d="M66.21,47.26l-.39.9L60.37,48l.4-.93,1.12.05.81-1.92-.81-.79.39-.92Zm-1.44-.07-1.34-1.31-.53,1.25Z" transform="translate(0 0)"/><path class="cls-2" d="M61.06,54.66l-.17-.92a2.11,2.11,0,0,0,1.46-.9,1.71,1.71,0,0,0-.51-2.4,1.82,1.82,0,0,0-.87-.3,1.65,1.65,0,0,0-.87.18,2,2,0,0,0-.68.63,1.78,1.78,0,0,0-.28.73,2.75,2.75,0,0,0,.06,1l-.94.18a3.5,3.5,0,0,1,0-1.31,2.9,2.9,0,0,1,.44-1.08,2.71,2.71,0,0,1,4.67.23A2.66,2.66,0,0,1,63.58,52a2.73,2.73,0,0,1-.46,1.35,2.81,2.81,0,0,1-.88.87A3,3,0,0,1,61.06,54.66Z" transform="translate(0 0)"/><path class="cls-2" d="M59.76,57.47l-.67.71-5.05-2,.68-.74,1,.43,1.42-1.52-.48-1,.69-.74Zm-1.33-.56-.8-1.7-.93,1Z" transform="translate(0 0)"/><path class="cls-2" d="M56.68,60.52l-.92.69a3.73,3.73,0,0,1-1.48.78A2.08,2.08,0,0,1,53,61.82a2.91,2.91,0,0,1-1.15-.94,2.94,2.94,0,0,1-.5-1,2.16,2.16,0,0,1-.07-1,1.84,1.84,0,0,1,.32-.81,5.29,5.29,0,0,1,1-.95l.93-.7Zm-1.34-.16L53.4,57.8l-.36.28a2.27,2.27,0,0,0-.68.7,1.18,1.18,0,0,0-.07.71,1.88,1.88,0,0,0,.38.82A1.66,1.66,0,0,0,53.8,61a1.82,1.82,0,0,0,1.28-.47Z" transform="translate(0 0)"/><path class="cls-2" d="M52.19,63.72l-2.43,1.36-.46-.83,1.59-.89-.45-.8-1.59.89-.45-.82L50,61.75l-.66-1.17-1.58.88-.47-.83,2.43-1.35Z" transform="translate(0 0)"/><path class="cls-2" d="M47.92,66l-.89.31-2.3-2.94.07,3.74-.89.32L41.4,62.89l.88-.31,1.59,2.84L43.81,62l.81-.29,2.09,2.67-.56-3.22.89-.31Z" transform="translate(0 0)"/><path class="cls-2" d="M42,67.88l-1,.17L39.75,66.4l-.63,2-1,.17,1-3.09-.37-2.18,1-.16.36,2.18Z" transform="translate(0 0)"/><path class="cls-2" d="M32.88,68.67l-2.81-.23.08-1,.93.07.34-4.12,1,.08-.34,4.13.9.07Z" transform="translate(0 0)"/><path class="cls-2" d="M28.91,68.27l-1-.2a3.33,3.33,0,0,1-1.15-.39,1.16,1.16,0,0,1-.46-.6,1.46,1.46,0,0,1-.05-.86,1.39,1.39,0,0,1,.4-.77,1.45,1.45,0,0,1,.81-.36l-.73-2.45,1,.21.69,2.34h.09L29,63.09l.95.19Zm-.56-2.14-.3-.06a1.24,1.24,0,0,0-.64,0,.48.48,0,0,0-.26.36.5.5,0,0,0,0,.3.46.46,0,0,0,.19.22,1.6,1.6,0,0,0,.51.16l.26.05Z" transform="translate(0 0)"/><path class="cls-2" d="M22.92,66.73,22,66.39l-.07-5.46.94.35V62.4l1.95.72.75-.84.95.35Zm0-1.44,1.24-1.41-1.28-.47Z" transform="translate(0 0)"/><path class="cls-2" d="M19.16,65.14l-.86-.44,2.31-4.53.86.44Z" transform="translate(0 0)"/><path class="cls-2" d="M16.91,64l-.77-.51.06-4-1.87,2.78-.8-.54,2.83-4.22.78.52-.06,4,1.86-2.77.81.54Z" transform="translate(0 0)"/><path class="cls-2" d="M12.35,60.71l-.73-.63,3.31-3.86.73.62Z" transform="translate(0 0)"/><path class="cls-2" d="M10.44,59.07l-.63-.69,1-3.87L8.34,56.78l-.66-.71,3.75-3.45.63.69-1,3.86,2.46-2.26.66.71Z" transform="translate(0 0)"/><path class="cls-2" d="M4.71,50.17l.94.22A2,2,0,0,0,5.87,52,1.73,1.73,0,0,0,7,52.84a1.66,1.66,0,0,0,1.3-.22A1.69,1.69,0,0,0,9,51.51a1.81,1.81,0,0,0-.26-1.37,1.59,1.59,0,0,0-.63-.61,1.48,1.48,0,0,0-.85-.12l.78,1.25-.77.49L6,49l.17-.12a2.42,2.42,0,0,1,1.26-.38,2.37,2.37,0,0,1,1.25.27,2.56,2.56,0,0,1,.95.93A2.67,2.67,0,0,1,10,51.06a2.48,2.48,0,0,1-.3,1.35,2.77,2.77,0,0,1-1,1,2.58,2.58,0,0,1-1.85.37,2.66,2.66,0,0,1-1.85-1.28,3.28,3.28,0,0,1-.45-1.18A2.94,2.94,0,0,1,4.71,50.17Z" transform="translate(0 0)"/><path class="cls-2" d="M1.26,39.89l.79.51a2.09,2.09,0,0,0-.34,1.68,1.73,1.73,0,0,0,.78,1.08,1.66,1.66,0,0,0,1.31.19,1.88,1.88,0,0,0,.83-.43,1.59,1.59,0,0,0,.45-.76,1.91,1.91,0,0,0-.33-1.64,2.82,2.82,0,0,0-.74-.6l.51-.81a3.62,3.62,0,0,1,1,.86A2.8,2.8,0,0,1,6,41a2.67,2.67,0,0,1-.26,2.07A2.63,2.63,0,0,1,4,44.29a2.62,2.62,0,0,1-1.39,0,2.52,2.52,0,0,1-1.16-.73A2.68,2.68,0,0,1,.8,42.29a2.88,2.88,0,0,1,0-1.24A2.91,2.91,0,0,1,1.26,39.89Z" transform="translate(0 0)"/><path class="cls-2" d="M.1,37l-.07-1,5-2.28.06,1-1,.47.14,2.07,1.07.34.07,1Zm1.31-.58L3.2,37l-.09-1.35Z" transform="translate(0 0)"/><path class="cls-2" d="M0,32.11l.12-.94,3.67-.73L.41,28.82l.12-.94,5.16-.21-.12.93-3.26.14,3.06,1.48-.11.84-3.32.67,3.12.95-.12.94Z" transform="translate(0 0)"/><path class="cls-2" d="M1.07,25.66l.29-1a3.66,3.66,0,0,1,.5-1.11,1.24,1.24,0,0,1,.65-.41,1.47,1.47,0,0,1,.85,0,1.32,1.32,0,0,1,.76.52,1.44,1.44,0,0,1,.26.87,5.14,5.14,0,0,1-.22,1l2.06.62-.28.93Zm2.18-.35L3.34,25a1.93,1.93,0,0,0,.1-.5.46.46,0,0,0-.1-.26.54.54,0,0,0-.26-.17.47.47,0,0,0-.47.1,1.23,1.23,0,0,0-.28.56L2.25,25Z" transform="translate(0 0)"/><path class="cls-2" d="M2.46,21.4l.41-.88,3,1.39a1.79,1.79,0,0,0,.58.18.58.58,0,0,0,.36-.1.89.89,0,0,0,.27-.33.83.83,0,0,0,.08-.45A.61.61,0,0,0,7,20.85a2.21,2.21,0,0,0-.6-.36L3.5,19.16l.41-.88,2.75,1.27a4.63,4.63,0,0,1,.93.53,1.54,1.54,0,0,1,.38.54,1.51,1.51,0,0,1,.14.68,1.89,1.89,0,0,1-.19.73,1.82,1.82,0,0,1-.64.77,1.44,1.44,0,0,1-.82.26,3.45,3.45,0,0,1-1.25-.38Z" transform="translate(0 0)"/><path class="cls-2" d="M6.76,15l.14.94a1,1,0,0,0-.86.37.45.45,0,0,0-.08.31.3.3,0,0,0,.13.23.35.35,0,0,0,.25.06,6.75,6.75,0,0,0,.93-.25c.46-.14.75-.23.86-.25a1.92,1.92,0,0,1,.7,0,1.52,1.52,0,0,1,.57.21,1.42,1.42,0,0,1,.64.93,1.6,1.6,0,0,1-.27,1.17A1.7,1.7,0,0,1,9,19.3,2,2,0,0,1,8,19.43l0-.95a1,1,0,0,0,1-.35.61.61,0,0,0,.1-.43.41.41,0,0,0-.19-.32.6.6,0,0,0-.36-.08,3.6,3.6,0,0,0-.75.19,6.18,6.18,0,0,1-1.46.34,1.35,1.35,0,0,1-.75-.19,1.21,1.21,0,0,1-.55-.83,1.42,1.42,0,0,1,.22-1,1.65,1.65,0,0,1,.54-.51A2.49,2.49,0,0,1,6.76,15Z" transform="translate(0 0)"/><path class="cls-2" d="M35.49,57.88a7.41,7.41,0,0,0-2-1.17c-1.84-.75-2.58-.44-2-3.93,2.69-11.06,1.6-23-.49-25.56,2.56.28,5.47-1.07,6.68-.74a.63.63,0,0,0,.62-.17c.09.38.24.73,1.26.4a5,5,0,0,0,1.4-.6c.43-.34.43-.34.34-.64l-1-1.89c0-1.51.05-1.2-1-.93-.15,0-.29,0-.44.07a4,4,0,0,0-1.4.51c-.32.33.22.51.31,1l.09.31a1.71,1.71,0,0,0-.69-.1c-.22,0-.12-.82-.62-.45-.09.05-.52,1-.85,1.15-1.2.36-1.51.11-4.31-1-.11,0-.05-.55,0-1.27,1.2-.24,3.65-.7,4.2-.93,2-.84,2.14-1.15,4.85-1.21a2,2,0,0,0,.51-.21V21a.94.94,0,0,0,.93.95h2.78v5H40.42a.9.9,0,0,0-.91.91v2.7a.9.9,0,0,0,.91.91H50a.91.91,0,0,0,.91-.91V18.79a1.5,1.5,0,0,0-1.34-1.62H46a1.36,1.36,0,0,0-1.25,1H41.86a.9.9,0,0,0-.87.63,1.8,1.8,0,0,0-1.09-.41c-.4,0-2.2,1.42-3.15,1.65-1.74.46-3.93.15-5.27.17a8.76,8.76,0,0,0-.09-.91,7.78,7.78,0,0,0-1.07-2.7,1.18,1.18,0,0,0,.21-.49A4,4,0,0,1,31,15.06c1.55.41.82-1.81,1.8-1.53.58.14.37-.64.37-1.3,0-.85.25-1.78-.08-2.38a2.87,2.87,0,0,0-.7-.78,2.91,2.91,0,0,0-2.11-.79,3.19,3.19,0,0,0-1.91.77,2.8,2.8,0,0,0-.53,2.49,6.53,6.53,0,0,0,.67,2v0a6,6,0,0,1-.12.85,2.5,2.5,0,0,1-.22.64,1.27,1.27,0,0,0-.42.09c-1.09.46-2.11,1.66-2.38,6-.35,5.32,0,4,0,5.32a4,4,0,0,0,.09.8c.09.35-.18.64-.25,1a7.55,7.55,0,0,0-.15,4.1c3,8.25,3.11,16.23,2.73,22.26-.09,1.32-.25,2.67-.2,3.29,0,0-.12.29,2,.36S35.54,58.06,35.49,57.88Z" transform="translate(0 0)"/></g></svg>